<svg width="24" height="28" viewBox="0 0 24 28" fill="none" xmlns="http://www.w3.org/2000/svg">
<path id="Vector" d="M11.8345 6.7207C13.3701 6.7207 14.7172 6.12163 15.8759 4.92346C17.0345 3.72529 17.6138 2.33204 17.6138 0.74369C17.6138 0.569244 17.6 0.321348 17.5724 0C17.3701 0.0275441 17.2184 0.0504975 17.1172 0.0688602C15.7012 0.27085 14.4552 0.964043 13.3793 2.14841C12.3035 3.33281 11.7655 4.59983 11.7655 5.94949C11.7655 6.10555 11.7885 6.36265 11.8345 6.7207ZM17.3379 27.778C18.4322 27.778 19.6414 27.0298 20.9655 25.5332C22.2897 24.0366 23.3011 22.2784 24 20.2585C21.3977 18.9181 20.0965 16.9946 20.0965 14.4881C20.0965 12.3948 21.1494 10.6044 23.2552 9.11703C21.7931 7.28994 19.8621 6.3764 17.4621 6.3764C16.4506 6.3764 15.5264 6.52789 14.6897 6.83087L14.1655 7.02368L13.4621 7.29912C13.0023 7.47357 12.5839 7.56082 12.2069 7.56082C11.9126 7.56082 11.5264 7.4598 11.0483 7.25781L10.5103 7.03746L10 6.83087C9.25516 6.51871 8.45517 6.36263 7.60001 6.36263C5.31035 6.36263 3.47128 7.13386 2.08276 8.67633C0.694244 10.2188 0 12.2524 0 14.7773C0 18.3304 1.11263 21.6128 3.33793 24.6242C4.88277 26.7267 6.29426 27.778 7.57241 27.778C8.11496 27.778 8.65288 27.6724 9.1862 27.4612L9.86207 27.1858L10.4 26.993C11.154 26.7267 11.8483 26.5936 12.4828 26.5936C13.154 26.5936 13.9264 26.7635 14.8 27.1032L15.2276 27.2684C16.1195 27.6082 16.823 27.778 17.3379 27.778Z" fill="black"/>
</svg>
