<svg width="34" height="35" viewBox="0 0 34 35" fill="none" xmlns="http://www.w3.org/2000/svg">
<g id="Group">
<g id="Group_2">
<g id="Group_3">
<path id="Vector" d="M22.1182 26.4642C22.1177 26.4642 22.1173 26.4642 22.1169 26.4642C18.9441 26.4622 15.3056 24.6914 12.1342 21.6059C12.1288 21.6007 12.1234 21.5953 12.1181 21.5899C9.03261 18.4186 7.26183 14.78 7.25977 11.6072C7.25977 10.439 7.85811 9.21033 8.94462 8.14699C9.6922 7.41547 10.7958 6.67725 11.5764 6.67725C12.7792 6.67725 13.0992 7.24604 13.5837 8.10701C13.7017 8.31683 13.8355 8.55463 14.0086 8.84225C14.1044 9.00092 14.2364 9.20213 14.3763 9.4151C15.2647 10.7687 15.8243 11.7153 15.519 12.5069C15.2796 13.1229 14.6465 13.6285 14.034 14.1173C13.8074 14.2983 13.4825 14.5577 13.3385 14.7144C13.4497 15.3325 14.2594 16.6409 15.6714 18.0528C17.0815 19.4628 18.3883 20.2723 19.008 20.3851C19.1642 20.2411 19.4216 19.9186 19.6014 19.6934C20.0922 19.0785 20.5997 18.4429 21.2176 18.2049C21.3601 18.1499 21.5163 18.122 21.6815 18.122C22.3868 18.122 23.2154 18.6301 24.309 19.3479C24.5219 19.4876 24.7232 19.6197 24.8831 19.7163C25.1695 19.8886 25.4073 20.0224 25.6172 20.1405C26.478 20.625 27.0468 20.945 27.0468 22.1476C27.0468 22.9279 26.3082 24.0314 25.5761 24.7789C24.5128 25.8646 23.2848 26.4632 22.1182 26.4642ZM13.2967 20.4274C16.1178 23.169 19.4146 24.8068 22.1172 24.8089C23.7513 24.8069 25.3059 22.6872 25.3915 22.1329C25.3909 22.0197 25.3843 21.9602 25.3795 21.932C25.2951 21.8587 25.036 21.7129 24.8054 21.5831C24.5966 21.4656 24.3367 21.3194 24.0284 21.1339C23.8407 21.0206 23.6269 20.8803 23.4006 20.7317C22.9718 20.4503 22.1095 19.8844 21.7425 19.7897C21.5161 19.9482 21.119 20.4456 20.895 20.7261C20.3272 21.4375 19.8368 22.0518 19.1452 22.0542C17.4604 22.0524 15.1644 19.8869 14.5008 19.2233C13.8371 18.5597 11.6716 16.2637 11.6699 14.5825C11.6699 13.8865 12.2869 13.394 13.0012 12.8236C13.2803 12.6009 13.7747 12.2063 13.9341 11.9807C13.8388 11.613 13.2736 10.752 12.9924 10.3236C12.8438 10.0973 12.7035 9.88349 12.5909 9.69701C12.4046 9.38754 12.2584 9.12772 12.1409 8.91889C12.0112 8.68822 11.8653 8.42915 11.7921 8.34472C11.7638 8.33992 11.7043 8.3333 11.591 8.33272C11.0363 8.41789 8.91507 9.97214 8.91507 11.6067C8.91698 14.3089 10.5548 17.606 13.2967 20.4274Z" fill="black"/>
</g>
<g id="Group_4">
<path id="Vector_2" d="M0.827897 34.0251C0.619069 34.0251 0.413386 33.946 0.25629 33.7962C0.0173339 33.5681 -0.0631184 33.2199 0.0514348 32.9102L2.78142 25.531C0.782208 22.4018 -0.153999 18.6802 0.141074 15.0027C0.452122 11.1265 2.1249 7.4904 4.85108 4.76422C7.92332 1.69198 12.0369 0 16.434 0C20.9891 0 25.2935 1.79585 28.5546 5.05681C35.1702 11.6726 35.3016 22.3058 28.8472 28.7603C25.7754 31.832 21.6621 33.5239 17.2658 33.5239C17.2655 33.5239 17.2656 33.5239 17.2654 33.5239C14.0786 33.5238 10.975 32.6332 8.26077 30.9438L1.15095 33.9595C1.04666 34.0036 0.936821 34.0251 0.827897 34.0251ZM8.33932 29.1837C8.4989 29.1837 8.65749 29.2298 8.79472 29.3201C11.3256 30.9872 14.2547 31.8684 17.2654 31.8685C21.2198 31.8685 24.9172 30.3491 27.6766 27.5897C33.4856 21.7807 33.3543 12.1976 27.3839 6.22734C24.4357 3.279 20.5468 1.65539 16.434 1.65539C12.479 1.65539 8.78123 3.17513 6.02169 5.93475C1.01363 10.9428 0.326892 18.9455 4.38881 24.9632C4.53796 25.1841 4.57157 25.4634 4.47903 25.7134L2.26908 31.687L8.01627 29.2494C8.1199 29.2053 8.2299 29.1837 8.33932 29.1837Z" fill="black"/>
</g>
</g>
</g>
</svg>
