<svg width="19" height="19" viewBox="0 0 19 19" fill="none" xmlns="http://www.w3.org/2000/svg">
<g id="Share 2">
<g id="Group">
<path id="Vector" d="M9.7125 8.61819C9.63381 8.70872 9.59218 8.82561 9.59594 8.9455C9.5997 9.06539 9.64857 9.17944 9.73278 9.26486C9.81699 9.35027 9.93034 9.40076 10.0502 9.40622C10.17 9.41168 10.2875 9.37171 10.3791 9.29431L17.045 2.62839V6.03753C17.047 6.1632 17.0978 6.28317 17.1866 6.37204C17.2755 6.46091 17.3955 6.5117 17.5211 6.51367C17.6474 6.51367 17.7685 6.4635 17.8578 6.37421C17.9471 6.28492 17.9973 6.16381 17.9973 6.03753V1.47614C17.9973 1.34986 17.9471 1.22875 17.8578 1.13946C17.7685 1.05016 17.6474 1 17.5211 1H12.9598C12.8335 1 12.7124 1.05016 12.6231 1.13946C12.5338 1.22875 12.4836 1.34986 12.4836 1.47614C12.4836 1.60242 12.5338 1.72352 12.6231 1.81282C12.7124 1.90211 12.8335 1.95227 12.9598 1.95227H16.3689L9.7125 8.61819Z" fill="black" stroke="black" stroke-width="0.5"/>
<path id="Vector_2" d="M15.0956 18H3.90444C3.13436 17.9992 2.39605 17.693 1.85153 17.1485C1.307 16.604 1.00076 15.8656 1 15.0956V3.90444C1.00076 3.13436 1.307 2.39605 1.85153 1.85153C2.39605 1.307 3.13436 1.00076 3.90444 1H9.64475C9.77103 1 9.89213 1.05016 9.98142 1.13946C10.0707 1.22875 10.1209 1.34986 10.1209 1.47614C10.1209 1.60242 10.0707 1.72352 9.98142 1.81282C9.89213 1.90211 9.77103 1.95227 9.64475 1.95227H3.90444C3.38692 1.95303 2.89082 2.15895 2.52488 2.52488C2.15895 2.89082 1.95303 3.38692 1.95227 3.90444V15.0956C1.95303 15.6131 2.15895 16.1092 2.52488 16.4751C2.89082 16.8411 3.38692 17.047 3.90444 17.0477H15.0956C15.6131 17.047 16.1092 16.8411 16.4751 16.4751C16.8411 16.1092 17.047 15.6131 17.0477 15.0956V9.35621C17.0477 9.22993 17.0979 9.10882 17.1872 9.01953C17.2765 8.93023 17.3976 8.88007 17.5239 8.88007C17.6501 8.88007 17.7712 8.93023 17.8605 9.01953C17.9498 9.10882 18 9.22993 18 9.35621V15.0956C17.9992 15.8656 17.693 16.604 17.1485 17.1485C16.604 17.693 15.8656 17.9992 15.0956 18Z" fill="black" stroke="black" stroke-width="0.5"/>
</g>
</g>
</svg>
