<svg width="30" height="30" viewBox="0 0 30 30" fill="none" xmlns="http://www.w3.org/2000/svg">
<g id="Group 628396">
<g id="Group 627526">
<g id="Vector">
<path d="M5.25 12.9829C5.25 9.58986 11.6092 3.75 15 3.75C18.3908 3.75 24.75 9.58986 24.75 12.9829V21.2261C24.7301 22.3666 24.2648 23.4535 23.4543 24.253C22.6438 25.0523 21.5529 25.5002 20.4167 25.5H9.58333C8.44708 25.5002 7.35622 25.0523 6.5457 24.253C5.73518 23.4535 5.26988 22.3666 5.25 21.2261V12.9611" fill="black"/>
<path d="M5.25 12.9829C5.25 9.58986 11.6092 3.75 15 3.75C18.3908 3.75 24.75 9.58986 24.75 12.9829V21.2261C24.7301 22.3666 24.2648 23.4535 23.4543 24.253C22.6438 25.0523 21.5529 25.5002 20.4167 25.5H9.58333C8.44708 25.5002 7.35622 25.0523 6.5457 24.253C5.73518 23.4535 5.26988 22.3666 5.25 21.2261V12.9611" stroke="black" stroke-width="1.5" stroke-linecap="round" stroke-linejoin="round"/>
</g>
<g id="Vector_2">
<path d="M15 18.75V24.75V18.75Z" fill="white"/>
<path d="M15 18.75V24.75" stroke="white" stroke-width="1.5" stroke-linecap="round" stroke-linejoin="round"/>
</g>
</g>
</g>
</svg>
