<svg width="51" height="21" viewBox="0 0 51 21" fill="none" xmlns="http://www.w3.org/2000/svg">
<g id="Group 628326">
<rect id="Rectangle 7158" width="51" height="21" rx="3" fill="#3BFFC1"/>
<path id="Vector" d="M41.4563 6.47003L38.8612 16.3814V16.4127H40.8935L43.4886 6.5013H41.4563V6.47003ZM9.37719 12.098C9.06453 12.2543 8.75187 12.3168 8.40794 12.3168C7.68881 12.3168 7.28235 12.1918 7.21982 11.5977V11.5664C7.21982 11.5352 7.21982 11.5352 7.21982 11.5039V9.78425V9.59665V8.37727V7.87701V7.68941V6.53257L5.40638 6.75143C6.62576 6.5013 7.31362 5.56331 7.31362 4.59406V4H5.28132V6.78269L5.15625 6.81396V11.9416C5.21878 13.3799 6.18804 14.2553 7.72008 14.2553C8.28287 14.2553 8.87693 14.1303 9.34592 13.9114L9.37719 12.098Z" fill="#292929"/>
<path id="Vector_2" d="M9.69045 6.09469L4 6.97014V8.40839L9.69045 7.53294V6.09469ZM9.69045 8.22079L4 9.09625V10.472L9.69045 9.59651V8.22079ZM16.0688 8.87739C15.975 7.28281 14.9744 6.31355 13.3486 6.31355C12.4106 6.31355 11.629 6.68875 11.0974 7.37661C10.5659 8.06446 10.2845 9.06498 10.2845 10.2844C10.2845 11.5037 10.5659 12.5043 11.0974 13.1921C11.629 13.88 12.4106 14.2239 13.3486 14.2239C14.9744 14.2239 15.975 13.2859 16.0688 11.6601V14.0676H18.1011V6.50115L16.0688 6.81381V8.87739ZM16.1938 10.2844C16.1938 11.6913 15.4434 12.6293 14.2866 12.6293C13.0985 12.6293 12.3793 11.7539 12.3793 10.2844C12.3793 8.81485 13.0985 7.9394 14.2866 7.9394C14.8494 7.9394 15.3496 8.15826 15.6936 8.59599C16.0062 9.00245 16.1938 9.59651 16.1938 10.2844ZM24.0104 6.31355C22.3845 6.31355 21.384 7.25154 21.2902 8.87739V4.28125L19.2579 4.59391V14.0676H21.2902V11.6601C21.384 13.2859 22.3845 14.2239 24.0104 14.2239C25.9176 14.2239 27.0745 12.7544 27.0745 10.2844C27.0745 7.81433 25.9176 6.31355 24.0104 6.31355ZM23.1037 12.6293C21.9468 12.6293 21.1964 11.7226 21.1964 10.2844C21.1964 9.59651 21.384 9.00245 21.6967 8.59599C22.0406 8.15826 22.5096 7.9394 23.1037 7.9394C24.2918 7.9394 25.0109 8.81485 25.0109 10.2844C25.0109 11.7539 24.2918 12.6293 23.1037 12.6293ZM32.5773 6.31355C30.9515 6.31355 29.951 7.25154 29.8572 8.87739V4.28125L27.8249 4.59391V14.0676H29.8572V11.6601C29.951 13.2859 30.9515 14.2239 32.5773 14.2239C34.4846 14.2239 35.6414 12.7544 35.6414 10.2844C35.6414 7.81433 34.4846 6.31355 32.5773 6.31355ZM31.6706 12.6293C30.5138 12.6293 29.7634 11.7226 29.7634 10.2844C29.7634 9.59651 29.951 9.00245 30.2636 8.59599C30.6076 8.15826 31.0765 7.9394 31.6706 7.9394C32.8587 7.9394 33.5778 8.81485 33.5778 10.2844C33.5778 11.7539 32.8587 12.6293 31.6706 12.6293ZM35.6414 6.46989H37.7988L39.5497 14.0676H37.6112L35.6414 6.46989ZM45.1464 7.25154V6.65748H44.8962V6.53242H45.5528V6.65748H45.3027V7.25154H45.1464ZM45.5841 7.25154V6.50115H45.8342L45.9593 6.84508C45.9905 6.93888 46.0218 6.97015 46.0218 7.00141C46.0218 6.97015 46.0531 6.93888 46.0843 6.84508L46.2094 6.50115H46.4595V7.25154H46.3032V6.65748L46.0843 7.25154H45.928L45.7404 6.65748V7.25154H45.5841Z" fill="#292929"/>
</g>
</svg>
