<svg width="26" height="26" viewBox="0 0 26 26" fill="none" xmlns="http://www.w3.org/2000/svg">
<g id="favorite">
<mask id="mask0_12446_10773" style="mask-type:alpha" maskUnits="userSpaceOnUse" x="0" y="0" width="26" height="26">
<rect id="Bounding box" width="26" height="26" fill="#676767"/>
</mask>
<g mask="url(#mask0_12446_10773)">
<path id="favorite_2" d="M13.0001 22.0184L11.8043 20.9434C10.0085 19.3143 8.52343 17.9143 7.34912 16.7434C6.17482 15.5726 5.24427 14.5306 4.55748 13.6174C3.87066 12.7042 3.3908 11.8712 3.11789 11.1185C2.84496 10.3657 2.7085 9.6018 2.7085 8.8268C2.7085 7.28931 3.2269 6.00217 4.2637 4.96536C5.30051 3.92856 6.58765 3.41016 8.12514 3.41016C9.07098 3.41016 9.96473 3.63135 10.8064 4.07373C11.648 4.51609 12.3793 5.15046 13.0001 5.97684C13.621 5.15046 14.3522 4.51609 15.1939 4.07373C16.0355 3.63135 16.9293 3.41016 17.8751 3.41016C19.4126 3.41016 20.6998 3.92856 21.7366 4.96536C22.7734 6.00217 23.2918 7.28931 23.2918 8.8268C23.2918 9.6018 23.1553 10.3657 22.8824 11.1185C22.6095 11.8712 22.1296 12.7042 21.4428 13.6174C20.756 14.5306 19.8272 15.5726 18.6564 16.7434C17.4855 17.9143 15.9987 19.3143 14.1959 20.9434L13.0001 22.0184ZM13.0001 19.8226C14.7335 18.2629 16.1599 16.9261 17.2793 15.8122C18.3987 14.6983 19.2835 13.7306 19.9335 12.9091C20.5835 12.0876 21.0349 11.358 21.2876 10.7205C21.5404 10.083 21.6668 9.45179 21.6668 8.8268C21.6668 7.74346 21.3057 6.84069 20.5835 6.11846C19.8612 5.39624 18.9585 5.03513 17.8751 5.03513C17.0196 5.03513 16.2289 5.27784 15.5033 5.76327C14.7776 6.24867 14.2029 6.92402 13.7793 7.78932H12.221C11.7904 6.91709 11.214 6.24 10.4918 5.75804C9.76959 5.2761 8.9807 5.03513 8.12514 5.03513C7.04875 5.03513 6.14771 5.39624 5.422 6.11846C4.69631 6.84069 4.33347 7.74346 4.33347 8.8268C4.33347 9.45179 4.45986 10.083 4.71264 10.7205C4.96541 11.358 5.4168 12.0876 6.0668 12.9091C6.7168 13.7306 7.60152 14.6966 8.72097 15.807C9.84041 16.9174 11.2668 18.256 13.0001 19.8226Z" fill="black"/>
</g>
</g>
</svg>
