<svg width="27" height="27" viewBox="0 0 27 27" fill="none" xmlns="http://www.w3.org/2000/svg">
<g id="favorite">
<mask id="mask0_12460_59720" style="mask-type:alpha" maskUnits="userSpaceOnUse" x="0" y="0" width="27" height="27">
<rect id="Bounding box" x="1" y="1" width="25" height="25" fill="#D9D9D9" stroke="white" stroke-width="2"/>
</mask>
<g mask="url(#mask0_12460_59720)">
<path id="favorite_2" d="M5.33004 13.692L5.33004 13.692C4.64412 12.78 4.19056 11.9811 3.94078 11.2921L3.94077 11.2921C3.68606 10.5896 3.56055 9.88268 3.56055 9.16794C3.56055 7.75948 4.0273 6.61692 4.9559 5.68832C5.8845 4.75972 7.02706 4.29297 8.43552 4.29297C9.2955 4.29297 10.1039 4.4928 10.871 4.89594L10.871 4.89595C11.6383 5.29926 12.3145 5.88167 12.8984 6.65886L13.498 7.45702L14.0977 6.65886C14.6815 5.88167 15.3577 5.29926 16.1251 4.89595L16.1251 4.89594C16.8921 4.4928 17.7005 4.29297 18.5605 4.29297C19.969 4.29297 21.1115 4.75972 22.0401 5.68832C22.9687 6.61692 23.4355 7.75948 23.4355 9.16794C23.4355 9.88268 23.31 10.5896 23.0553 11.2921L23.0553 11.2921C22.8055 11.9811 22.3519 12.78 21.666 13.692L22.2654 14.1428L21.666 13.692C20.981 14.6028 20.0424 15.6578 18.8415 16.8587C17.6378 18.0624 16.104 19.5069 14.2377 21.1935C14.2375 21.1937 14.2372 21.1939 14.237 21.1942L13.498 21.8584L12.7601 21.1951C12.7597 21.1947 12.7592 21.1943 12.7587 21.1939C10.8996 19.5072 9.36719 18.0624 8.15919 16.858C6.95474 15.6571 6.01474 14.6024 5.33004 13.692Z" stroke="black" stroke-width="1.5"/>
</g>
</g>
</svg>
