<svg width="65" height="65" viewBox="0 0 65 65" fill="none" xmlns="http://www.w3.org/2000/svg">
<g id="flower-svgrepo-com 1" clip-path="url(#clip0_8855_5563)">
<g id="Group">
<path id="Vector" d="M65 28.4931C65 20.3978 58.4361 13.834 50.3389 13.834C49.2242 13.834 48.1391 13.9609 47.0977 14.1969C46.4212 6.72648 40.145 0.872803 32.5 0.872803C24.8531 0.872803 18.5768 6.72648 17.9024 14.1969C16.859 13.9609 15.7739 13.834 14.6612 13.834C6.56386 13.834 0 20.3978 0 28.4931C0 34.5353 3.65587 39.7245 8.87478 41.968C7.56755 44.1619 6.81383 46.7267 6.81383 49.4663C6.81383 57.5616 13.3777 64.1273 21.4749 64.1273C25.8706 64.1273 29.8121 62.1893 32.5 59.1246C35.1858 62.1894 39.1294 64.1273 43.5251 64.1273C51.6223 64.1273 58.1862 57.5614 58.1862 49.4663C58.1862 46.7269 57.4323 44.162 56.1232 41.968C61.3441 39.7244 65 34.5352 65 28.4931ZM32.5 47.294C25.7 47.294 20.1855 41.7834 20.1855 34.9795C20.1855 28.1795 25.7001 22.6671 32.5 22.6671C39.2999 22.6671 44.8124 28.1797 44.8124 34.9795C44.8124 41.7834 39.3 47.294 32.5 47.294Z" fill="black"/>
</g>
</g>
<defs>
<clipPath id="clip0_8855_5563">
<rect width="65" height="65" fill="white"/>
</clipPath>
</defs>
</svg>
