<svg width="20" height="20" viewBox="0 0 20 20" fill="none" xmlns="http://www.w3.org/2000/svg">
<mask id="mask0_11722_62751" style="mask-type:alpha" maskUnits="userSpaceOnUse" x="0" y="0" width="20" height="20">
<rect width="20" height="20" fill="#D9D9D9"/>
</mask>
<g mask="url(#mask0_11722_62751)">
<path d="M4.2484 16.5513C3.99743 16.5962 3.79021 16.5334 3.62673 16.363C3.46326 16.1925 3.40396 15.9818 3.44882 15.7309L4.0834 12.6555L7.32382 15.9167L4.2484 16.5513ZM7.32382 15.9167L4.0834 12.6555L12.8494 3.91025C13.109 3.65067 13.4197 3.52087 13.7813 3.52087C14.143 3.52087 14.4536 3.65067 14.7132 3.91025L16.0899 5.26608C16.3494 5.52567 16.4792 5.83976 16.4792 6.20837C16.4792 6.57699 16.3494 6.89108 16.0899 7.15067L7.32382 15.9167ZM13.5946 4.68442L5.57382 12.718L7.28215 14.4263L15.3157 6.40546C15.3637 6.3574 15.3878 6.29733 15.3878 6.22525C15.3878 6.15303 15.3637 6.09289 15.3157 6.04483L13.9553 4.68442C13.9072 4.63636 13.8471 4.61233 13.7749 4.61233C13.7028 4.61233 13.6427 4.63636 13.5946 4.68442Z" fill="#1C1B1F"/>
</g>
</svg>
