<svg width="20" height="20" viewBox="0 0 20 20" fill="none" xmlns="http://www.w3.org/2000/svg">
<g id="task_alt">
<mask id="mask0_11509_57623" style="mask-type:alpha" maskUnits="userSpaceOnUse" x="0" y="0" width="20" height="20">
<rect id="Bounding box" width="20" height="20" fill="#D9D9D9"/>
</mask>
<g mask="url(#mask0_11509_57623)">
<path id="task_alt_2" d="M10.0015 17.5827C8.96203 17.5827 7.98141 17.3853 7.0596 16.9906C6.1378 16.5959 5.33099 16.0528 4.63919 15.3612C3.94738 14.6697 3.40398 13.8632 3.00898 12.9418C2.61412 12.0205 2.41669 11.0401 2.41669 10.0008C2.41669 8.94747 2.61412 7.96338 3.00898 7.04852C3.4037 6.13365 3.9469 5.33032 4.63856 4.63852C5.33023 3.94671 6.13683 3.40331 7.05835 3.00831C7.97988 2.61345 8.96044 2.41602 10 2.41602C10.85 2.41602 11.6597 2.54796 12.4292 2.81185C13.1986 3.07574 13.9034 3.45074 14.5434 3.93685L13.7644 4.71581C13.2398 4.3172 12.6565 4.01483 12.0146 3.80872C11.3727 3.60247 10.7011 3.49935 10 3.49935C8.19446 3.49935 6.65974 4.13129 5.39585 5.39518C4.13196 6.65907 3.50002 8.19379 3.50002 9.99935C3.50002 11.8049 4.13196 13.3396 5.39585 14.6035C6.65974 15.8674 8.19446 16.4993 10 16.4993C11.8056 16.4993 13.3403 15.8674 14.6042 14.6035C15.8681 13.3396 16.5 11.8049 16.5 9.99935C16.5 9.6649 16.4738 9.3372 16.4215 9.01622C16.3691 8.69525 16.2975 8.37872 16.2067 8.06664L17.0496 7.21581C17.2302 7.64414 17.3643 8.09178 17.4519 8.55872C17.5395 9.02553 17.5834 9.50574 17.5834 9.99935C17.5834 11.0389 17.386 12.0195 16.9913 12.941C16.5965 13.8625 16.0534 14.6691 15.3619 15.3608C14.6704 16.0525 13.8674 16.5957 12.9529 16.9904C12.0385 17.3853 11.0547 17.5827 10.0015 17.5827ZM8.83815 13.315L5.77252 10.2493L6.56731 9.45456L8.85898 11.7462L16.8094 3.80393L17.5834 4.57789L8.83815 13.315Z" fill="#31C859"/>
</g>
</g>
</svg>
