<svg width="21" height="21" viewBox="0 0 21 21" fill="none" xmlns="http://www.w3.org/2000/svg">
<g id="&#229;&#175;&#188;&#232;&#136;&#170;&#229;&#155;&#190;&#230;&#160;&#135;">
<g id="&#231;&#188;&#150;&#231;&#187;&#132;">
<path id="&#231;&#159;&#169;&#229;&#189;&#162;" d="M21 0H0V21H21V0Z" fill="white" fill-opacity="0.01"/>
<path id="&#232;&#183;&#175;&#229;&#190;&#132;" d="M15.75 14C17.683 14 19.25 12.433 19.25 10.5C19.25 8.56699 17.683 7 15.75 7" stroke="#212121" stroke-width="1.5" stroke-linejoin="round"/>
<path id="&#232;&#183;&#175;&#229;&#190;&#132;_2" d="M5.25 7C3.317 7 1.75 8.56699 1.75 10.5C1.75 12.433 3.317 14 5.25 14" stroke="#212121" stroke-width="1.5" stroke-linejoin="round"/>
<path id="&#232;&#183;&#175;&#229;&#190;&#132;_3" d="M5.25 14V13.7812V12.6875V10.5V7C5.25 4.1005 7.60051 1.75 10.5 1.75C13.3995 1.75 15.75 4.1005 15.75 7V14C15.75 16.8995 13.3995 19.25 10.5 19.25" stroke="#212121" stroke-width="1.5" stroke-linecap="round" stroke-linejoin="round"/>
</g>
</g>
</svg>
