<svg width="27" height="26" viewBox="0 0 27 26" fill="none" xmlns="http://www.w3.org/2000/svg">
<path id="campaign" d="M20.9432 11.7822L20.3198 10.1854L24.7597 8.45219L25.3831 10.049L20.9432 11.7822ZM25.8286 19.9104L21.2216 18.6411L21.6948 16.9919L26.3018 18.2612L25.8286 19.9104ZM17.3172 5.78304L15.8516 4.89107L18.3382 0.867309L19.8039 1.7596L17.3172 5.78304ZM7.69266 25.5258L5.75602 20.5648L3.99658 21.2517C3.45204 21.4643 2.9084 21.4516 2.36566 21.2136C1.82293 20.9756 1.44527 20.5844 1.2327 20.0398L0.227852 17.4658C0.015275 16.9213 0.0279692 16.3776 0.265936 15.8349C0.503902 15.2921 0.895157 14.9145 1.4397 14.7019L6.66146 12.6635L11.0296 7.04369L16.2386 20.3872L9.21834 19.2132L7.35279 19.9415L9.28943 24.9024L7.69266 25.5258ZM13.5376 18.182L10.537 10.4955L7.71816 14.0911L2.06305 16.2987C1.96519 16.3369 1.89152 16.4126 1.84202 16.5259C1.79222 16.6391 1.78643 16.7446 1.82463 16.8425L2.82947 19.4165C2.86767 19.5143 2.94342 19.588 3.05671 19.6375C3.16987 19.6873 3.27538 19.6931 3.37324 19.6549L9.02835 17.4473L13.5376 18.182ZM16.941 16.9926L13.8461 9.06463C14.5209 9.32134 15.1444 9.73316 15.7167 10.3001C16.2893 10.8671 16.7355 11.5604 17.0554 12.3798C17.3753 13.1993 17.5168 14.0115 17.4798 14.8165C17.443 15.6212 17.2634 16.3466 16.941 16.9926Z" fill="white"/>
</svg>
