<svg width="20" height="20" viewBox="0 0 20 20" fill="none" xmlns="http://www.w3.org/2000/svg">
<path d="M9.01852 18.5541H7.81575C6.1317 18.5541 5.28967 18.5541 4.64645 18.2263C4.08066 17.9381 3.62065 17.4781 3.33237 16.9124C3.00463 16.2692 3.00463 15.4273 3.00463 13.7435V7.30678M19.0417 9.53424L13.5959 3.48489C12.3573 2.10911 11.7381 1.42121 11.0087 1.16726C10.3682 0.944199 9.67103 0.944249 9.03045 1.1674C8.30117 1.42147 7.68205 2.10945 6.44372 3.48542L1 9.53424" stroke="black" stroke-width="1.5" stroke-linecap="round" stroke-linejoin="round"/>
<path d="M13.6571 18.777C13.5877 18.7777 13.5199 18.7562 13.4636 18.7155C13.3221 18.6256 10 16.3876 10 13.667C10 12.6944 10.3853 11.7617 11.0711 11.074C11.757 10.3863 12.6872 10 13.6571 10C14.627 10 15.5572 10.3863 16.2431 11.074C16.9289 11.7617 17.3142 12.6944 17.3142 13.667C17.3142 16.3876 14.011 18.6256 13.8506 18.7155C13.7943 18.7562 13.7265 18.7777 13.6571 18.777ZM13.6571 10.7334C12.8782 10.7309 12.1302 11.0384 11.5772 11.5884C11.0243 12.1384 10.7116 12.886 10.7078 13.667C10.7078 15.6589 12.9681 17.4806 13.6571 17.9869C14.346 17.4806 16.6064 15.6589 16.6064 13.667C16.6026 12.886 16.2899 12.1384 15.737 11.5884C15.184 11.0384 14.436 10.7309 13.6571 10.7334Z" fill="black" stroke="black" stroke-width="0.6"/>
<path d="M13.5 15C13.2033 15 12.9133 14.912 12.6667 14.7472C12.4199 14.5824 12.2277 14.3481 12.1142 14.074C12.0006 13.7999 11.9709 13.4983 12.0288 13.2074C12.0867 12.9164 12.2296 12.6491 12.4394 12.4393C12.6491 12.2296 12.9164 12.0867 13.2074 12.0288C13.4984 11.9709 13.7999 12.0007 14.074 12.1142C14.3481 12.2277 14.5824 12.42 14.7472 12.6666C14.912 12.9133 15 13.2033 15 13.5C15 13.8978 14.842 14.2793 14.5606 14.5606C14.2793 14.842 13.8978 15 13.5 15ZM13.5 12.8182C13.3652 12.8182 13.2333 12.8582 13.1212 12.9331C13.0091 13.008 12.9217 13.1145 12.8701 13.2391C12.8185 13.3637 12.805 13.5008 12.8313 13.633C12.8576 13.7653 12.9225 13.8868 13.0179 13.9821C13.1132 14.0775 13.2347 14.1424 13.367 14.1687C13.4992 14.195 13.6363 14.1815 13.7609 14.1299C13.8855 14.0783 13.992 13.9909 14.0669 13.8788C14.1418 13.7667 14.1818 13.6348 14.1818 13.5C14.1818 13.3192 14.11 13.1457 13.9821 13.0179C13.8543 12.89 13.6808 12.8182 13.5 12.8182Z" fill="black" stroke="black" stroke-width="0.6"/>
</svg>
