<svg width="39" height="39" viewBox="0 0 39 39" fill="none" xmlns="http://www.w3.org/2000/svg">
<circle cx="19.8671" cy="19.1329" r="19.1329" fill="black"/>
<path d="M30.5564 24.4389C30.4154 24.0477 30.1454 23.84 29.8397 23.6666C29.7821 23.6324 29.7285 23.6041 29.6848 23.584C29.5935 23.5356 29.5002 23.4892 29.4069 23.4408C28.4519 22.9266 27.7054 22.2774 27.1892 21.5092C27.0145 21.249 26.8934 21.0151 26.808 20.8236C26.7644 20.6946 26.7664 20.622 26.7981 20.5554C26.822 20.505 26.8855 20.4526 26.9212 20.4264C27.07 20.3264 27.2195 20.2276 27.3699 20.13C27.5744 19.9949 27.7372 19.888 27.8404 19.8154C28.2335 19.5372 28.5075 19.2408 28.6782 18.9101C28.9205 18.4443 28.9503 17.912 28.7636 17.412C28.5055 16.7183 27.8583 16.2869 27.0761 16.2869C26.9133 16.2869 26.7485 16.305 26.5857 16.3413C26.542 16.3514 26.5003 16.3615 26.4587 16.3715C26.4666 15.8997 26.4547 15.3956 26.413 14.9036C26.2661 13.1696 25.6685 12.2602 25.0451 11.5364C24.785 11.2339 24.3323 10.7923 23.6534 10.3971C22.7064 9.84466 21.6343 9.56641 20.4649 9.56641C19.2995 9.56641 18.2274 9.84466 17.2804 10.3952C16.5975 10.7903 16.1448 11.2339 15.8867 11.5344C15.2633 12.2582 14.6657 13.1676 14.5188 14.9016C14.4772 15.3936 14.4672 15.8977 14.4731 16.3695C14.4315 16.3594 14.3878 16.3494 14.3461 16.3393C14.185 16.3034 14.0206 16.2851 13.8557 16.2848C13.0735 16.2848 12.4263 16.7163 12.1682 17.41C11.9816 17.91 12.0113 18.4423 12.2536 18.9081C12.4243 19.2388 12.7003 19.5352 13.0914 19.8134C13.1966 19.888 13.3574 19.9949 13.5619 20.128C13.6731 20.2006 13.8339 20.3074 13.9927 20.4143C14.0165 20.4304 14.1019 20.4949 14.1317 20.5554C14.1654 20.624 14.1654 20.6986 14.1158 20.8357C14.0324 21.0232 13.9113 21.2531 13.7406 21.5071C13.2343 22.2592 12.5097 22.8964 11.5865 23.4045C11.0961 23.6686 10.5879 23.8441 10.3734 24.4369C10.2106 24.8845 10.3178 25.3946 10.7288 25.8241C10.8638 25.9713 11.0346 26.1024 11.249 26.2234C11.7533 26.5056 12.1821 26.6448 12.5196 26.7395C12.5791 26.7577 12.7162 26.802 12.7757 26.8565C12.9266 26.9895 12.9047 27.1912 13.1053 27.4856C13.2264 27.6691 13.3653 27.7941 13.4805 27.8747C13.8994 28.1691 14.3719 28.1872 14.8722 28.2074C15.3229 28.2256 15.8351 28.2457 16.4188 28.4413C16.661 28.5219 16.9131 28.6792 17.203 28.8607C17.9018 29.2983 18.8607 29.8951 20.4629 29.8951C22.0671 29.8951 23.0299 29.2942 23.7348 28.8566C24.0246 28.6772 24.2747 28.5199 24.509 28.4413C25.0927 28.2457 25.605 28.2255 26.0556 28.2074C26.5559 28.1872 27.0264 28.1691 27.4473 27.8747C27.6226 27.7505 27.769 27.5888 27.8761 27.4009C28.0191 27.1529 28.0171 26.9774 28.1521 26.8585C28.2077 26.8101 28.3288 26.7677 28.3943 26.7476C28.7338 26.6528 29.1686 26.5137 29.6828 26.2253C29.9111 26.0983 30.0878 25.9592 30.2288 25.7999L30.2347 25.7938C30.6179 25.3704 30.7152 24.8764 30.5564 24.4389ZM29.1329 25.2152C28.2633 25.7031 27.6856 25.6507 27.2369 25.9431C26.8557 26.1931 27.08 26.7315 26.8041 26.925C26.4626 27.165 25.456 26.9089 24.1556 27.3444C23.0836 27.7054 22.3986 28.7397 20.4669 28.7397C18.5312 28.7397 17.8661 27.7094 16.7781 27.3444C15.4777 26.9089 14.4692 27.165 14.1297 26.925C13.8537 26.7315 14.0781 26.1931 13.6969 25.9431C13.2482 25.6487 12.6705 25.7011 11.8009 25.2152C11.247 24.9047 11.5607 24.7131 11.7453 24.6224C14.894 23.0758 15.3943 20.6845 15.4182 20.505C15.446 20.2913 15.4758 20.1219 15.2435 19.9021C15.0191 19.6904 14.0205 19.0633 13.7445 18.8678C13.2859 18.5431 13.0854 18.2185 13.2343 17.8192C13.3375 17.543 13.5917 17.4402 13.8597 17.4402C13.9431 17.4402 14.0285 17.4503 14.1098 17.4684C14.6121 17.5793 15.1005 17.8354 15.3824 17.9039C15.4222 17.914 15.4559 17.9181 15.4857 17.9181C15.6366 17.9181 15.6882 17.8414 15.6783 17.666C15.6465 17.1075 15.5671 16.0187 15.6544 15.0004C15.7736 13.6011 16.2183 12.9075 16.7464 12.2925C17.0005 11.9981 18.1917 10.7197 20.4689 10.7197C22.752 10.7197 23.9373 11.9981 24.1914 12.2925C24.7195 12.9055 25.1642 13.5991 25.2833 15.0004C25.3707 16.0187 25.2952 17.1075 25.2595 17.666C25.2476 17.8495 25.3032 17.9181 25.4521 17.9181C25.4818 17.9181 25.5176 17.9141 25.5553 17.9039C25.8372 17.8354 26.3256 17.5793 26.8279 17.4684C26.9101 17.45 26.9939 17.4405 27.078 17.4402C27.3461 17.4402 27.6002 17.5451 27.7034 17.8192C27.8524 18.2185 27.6498 18.5431 27.1932 18.8678C26.9173 19.0633 25.9186 19.6904 25.6943 19.9021C25.462 20.1199 25.4918 20.2893 25.5196 20.505C25.5414 20.6845 26.0437 23.0758 29.1924 24.6224C29.3711 24.7131 29.6868 24.9047 29.1329 25.2152Z" fill="white" stroke="white" stroke-width="0.5"/>
</svg>
