<svg width="72" height="72" viewBox="0 0 72 72" fill="none" xmlns="http://www.w3.org/2000/svg">
<path id="Vector" opacity="0.1" d="M28.9148 11.7C27.3966 6.3 29.4565 0 35.9999 0C42.5433 0 44.6035 6.3 43.0851 11.7C41.9639 15.6877 38.9109 25.0741 37.3907 29.7111C37.2168 30.2415 37.5602 30.7986 38.0754 31.0132C38.5905 31.2278 39.2112 31.0682 39.4632 30.5703C41.667 26.2165 46.1457 17.42 48.1727 13.8073C50.9175 8.9154 56.8289 5.91723 61.4558 10.5441C66.0826 15.171 63.0846 21.0825 58.1926 23.8273C54.5799 25.8542 45.7834 30.3329 41.4297 32.5367C40.9318 32.7887 40.7721 33.4095 40.9868 33.9246C41.2014 34.4398 41.7586 34.7832 42.2889 34.6093C46.926 33.089 56.3123 30.036 60.3 28.9148C65.7 27.3966 72 29.4565 72 35.9999C72 42.5433 65.7 44.6035 60.3 43.0851C56.3123 41.9639 46.926 38.911 42.2889 37.3907C41.7586 37.2168 41.2014 37.5602 40.9868 38.0754C40.7721 38.5905 40.9318 39.2113 41.4297 39.4633C45.7835 41.6671 54.58 46.1457 58.1926 48.1727C63.0846 50.9176 66.0827 56.8289 61.4558 61.4558C56.829 66.0827 50.9175 63.0846 48.1727 58.1927C46.1457 54.58 41.667 45.7834 39.4632 41.4297C39.2112 40.9318 38.5905 40.7722 38.0754 40.9868C37.5602 41.2014 37.2168 41.7585 37.3907 42.2889C38.911 46.9259 41.964 56.3123 43.0852 60.3C44.6034 65.7 42.5435 72 36.0001 72C29.4567 72 27.3965 65.7 28.9149 60.3C30.0361 56.3123 33.0891 46.9259 34.6093 42.2889C34.7832 41.7585 34.4398 41.2014 33.9246 40.9868C33.4095 40.7722 32.7888 40.9318 32.5368 41.4297C30.333 45.7835 25.8543 54.58 23.8273 58.1927C21.0825 63.0846 15.1711 66.0828 10.5442 61.4559C5.91735 56.829 8.9154 50.9175 13.8074 48.1727C17.4201 46.1458 26.2166 41.6671 30.5703 39.4633C31.0682 39.2113 31.2279 38.5905 31.0132 38.0754C30.7986 37.5602 30.2414 37.2168 29.7111 37.3907C25.074 38.911 15.6877 41.964 11.7 43.0852C6.3 44.6034 -9.91367e-07 42.5435 0 36.0001C8.58063e-07 29.4567 6.3 27.3965 11.7 28.9149C15.6877 30.0361 25.074 33.089 29.7111 34.6093C30.2414 34.7832 30.7986 34.4398 31.0132 33.9246C31.2278 33.4095 31.0682 32.7888 30.5703 32.5367C26.2165 30.3329 17.42 25.8543 13.8074 23.8273C8.91544 21.0825 5.91728 15.1711 10.5442 10.5442C15.171 5.91731 21.0825 8.91536 23.8273 13.8073C25.8543 17.42 30.333 26.2166 32.5368 30.5703C32.7888 31.0682 33.4095 31.2278 33.9246 31.0132C34.4398 30.7986 34.7832 30.2415 34.6093 29.7111C33.089 25.0741 30.036 15.6877 28.9148 11.7Z" fill="#27331B"/>
</svg>
