<svg width="39" height="39" viewBox="0 0 39 39" fill="none" xmlns="http://www.w3.org/2000/svg">
<circle cx="19.3776" cy="19.1329" r="19.1329" fill="black"/>
<path d="M29.3535 15.3263C29.3058 14.2831 29.1401 13.5706 28.8978 12.9473C28.6518 12.2934 28.266 11.701 27.7674 11.2114C27.2779 10.7128 26.6854 10.3268 26.0315 10.0807C25.408 9.83858 24.6957 9.67303 23.6525 9.62563C22.6073 9.57777 22.2734 9.56641 19.6118 9.56641C16.9502 9.56641 16.6162 9.57777 15.5711 9.62533C14.5278 9.67303 13.8155 9.83873 13.1921 10.081C12.5381 10.327 11.9458 10.7128 11.4562 11.2114C10.9576 11.7009 10.5716 12.2932 10.3254 12.9472C10.0833 13.5706 9.91778 14.2831 9.87038 15.3262C9.82252 16.3715 9.81116 16.7053 9.81116 19.3669C9.81116 22.0286 9.82252 22.3626 9.87038 23.4078C9.91793 24.4508 10.0836 25.1633 10.3259 25.7867C10.5719 26.4405 10.9577 27.033 11.4563 27.5225C11.9458 28.0211 12.5383 28.4069 13.1922 28.6529C13.8155 28.8953 14.528 29.0609 15.5712 29.1086C16.6165 29.1563 16.9503 29.1675 19.6119 29.1675C22.2735 29.1675 22.6075 29.1563 23.6527 29.1086C24.6959 29.0609 25.4082 28.8953 26.0316 28.6529C27.3481 28.1439 28.3888 27.1032 28.8978 25.7867C29.1402 25.1633 29.3058 24.4508 29.3535 23.4078C29.401 22.3624 29.4124 22.0286 29.4124 19.367C29.4124 16.7053 29.401 16.3715 29.3535 15.3263ZM27.5893 23.3275C27.5458 24.283 27.3861 24.802 27.2519 25.1473C26.9222 26.0021 26.2467 26.6776 25.3919 27.0073C25.0466 27.1415 24.5276 27.3012 23.5721 27.3447C22.5388 27.392 22.2288 27.4018 19.6118 27.4018C16.9946 27.4018 16.6847 27.392 15.6514 27.3447C14.6959 27.3012 14.177 27.1415 13.8315 27.0073C13.4059 26.8502 13.0209 26.5997 12.7047 26.2741C12.3792 25.958 12.1287 25.573 11.9715 25.1473C11.8374 24.802 11.6776 24.283 11.6341 23.3275C11.587 22.2941 11.577 21.9841 11.577 19.3672C11.577 16.7501 11.587 16.4403 11.6341 15.4068C11.6778 14.4512 11.8374 13.9322 11.9715 13.5869C12.1287 13.1612 12.3793 12.7761 12.7047 12.46C13.0209 12.1344 13.4059 11.8839 13.8317 11.7269C14.177 11.5926 14.6959 11.433 15.6515 11.3894C16.6849 11.3423 16.9949 11.3322 19.6118 11.3322H19.6116C22.2285 11.3322 22.5385 11.3423 23.5721 11.3895C24.5276 11.433 25.0464 11.5928 25.3919 11.7269C25.8175 11.8841 26.2026 12.1346 26.5187 12.46C26.8443 12.7761 27.0948 13.1612 27.2518 13.5869C27.3861 13.9322 27.5458 14.4512 27.5893 15.4068C27.6364 16.4401 27.6464 16.7501 27.6464 19.367C27.6464 21.9841 27.6366 22.2939 27.5893 23.3275Z" fill="white"/>
<path d="M19.6121 14.334C16.8326 14.334 14.5794 16.5874 14.5794 19.3668C14.5794 22.1463 16.8326 24.3995 19.6121 24.3995C22.3917 24.3995 24.6449 22.1463 24.6449 19.3668C24.6449 16.5874 22.3917 14.334 19.6121 14.334ZM19.6121 22.6337C17.8079 22.6335 16.3452 21.171 16.3454 19.3667C16.3454 17.5626 17.8079 16.0999 19.6122 16.0999C21.4165 16.1 22.879 17.5626 22.879 19.3667C22.879 21.171 21.4163 22.6337 19.6121 22.6337Z" fill="white"/>
<path d="M26.0198 14.1358C26.0198 14.7853 25.4933 15.3118 24.8438 15.3118C24.1942 15.3118 23.6676 14.7853 23.6676 14.1358C23.6676 13.4862 24.1942 12.9596 24.8438 12.9596C25.4933 12.9596 26.0198 13.4862 26.0198 14.1358Z" fill="white"/>
</svg>
