<svg width="24" height="24" viewBox="0 0 24 24" fill="none" xmlns="http://www.w3.org/2000/svg">
<g id="favorite">
<mask id="mask0_12460_59714" style="mask-type:alpha" maskUnits="userSpaceOnUse" x="0" y="0" width="24" height="24">
<rect id="Bounding box" x="1" y="1" width="22" height="22" fill="#D9D9D9" stroke="white" stroke-width="2"/>
</mask>
<g mask="url(#mask0_12460_59714)">
<path id="favorite_2" d="M4.80273 12.1197L4.80273 12.1197C4.19606 11.3131 3.79786 10.6103 3.57958 10.0082L3.57957 10.0081C3.35635 9.39248 3.24658 8.77373 3.24658 8.14841C3.24658 6.91735 3.65352 5.92331 4.46249 5.11434C5.27146 4.30537 6.2655 3.89844 7.49656 3.89844C8.2474 3.89844 8.95272 4.07275 9.62262 4.42485L9.62263 4.42485C10.2929 4.77712 10.8847 5.28633 11.3969 5.96818L11.9966 6.76633L12.5962 5.96818C13.1084 5.28633 13.7002 4.77712 14.3705 4.42485L14.3705 4.42485C15.0404 4.07275 15.7457 3.89844 16.4966 3.89844C17.7276 3.89844 18.7217 4.30537 19.5306 5.11434C20.3396 5.92331 20.7465 6.91735 20.7465 8.14841C20.7465 8.77373 20.6368 9.39248 20.4135 10.0081L20.4135 10.0082C20.1953 10.6103 19.7971 11.3131 19.1904 12.1197L19.7898 12.5705L19.1904 12.1197C18.5846 12.9252 17.7533 13.8599 16.6874 14.9258C15.6188 15.9944 14.2566 17.2773 12.5983 18.7758C12.5981 18.7761 12.5978 18.7763 12.5975 18.7766L11.9966 19.3168L11.3967 18.7775C11.3962 18.7771 11.3958 18.7768 11.3954 18.7764C9.74341 17.2777 8.38229 15.9943 7.30977 14.925C6.24082 13.8592 5.40818 12.9247 4.80273 12.1197ZM9.97124 3.76156L9.97148 3.7611L9.97124 3.76156Z" fill="#949495" stroke="white" stroke-width="1.5"/>
</g>
</g>
</svg>
