<svg width="30" height="30" viewBox="0 0 30 30" fill="none" xmlns="http://www.w3.org/2000/svg">
<g id="Group 628399">
<g id="Group 627528">
<path id="Vector" d="M15 27C21.6274 27 27 21.6274 27 15C27 8.37258 21.6274 3 15 3C8.37258 3 3 8.37258 3 15C3 21.6274 8.37258 27 15 27Z" fill="black"/>
<path id="Vector_2" d="M15.1647 15.75C15.0686 15.7363 14.9451 15.7363 14.8354 15.75C12.4208 15.6676 10.5 13.6889 10.5 11.2569C10.5 8.76984 12.5031 6.75 15 6.75C17.4832 6.75 19.5 8.76984 19.5 11.2569C19.4863 13.6889 17.5793 15.6676 15.1647 15.75Z" fill="white"/>
<path id="Vector_3" d="M22.875 24C20.6962 25.8621 18.1825 27 15 27C11.8175 27 9.30379 25.869 7.125 24.0069C7.2474 22.933 7.60683 21.882 8.91655 21.0594C12.2704 18.9802 17.7541 18.9802 21.0835 21.0594C22.3932 21.882 22.7526 22.9261 22.875 24Z" fill="white"/>
</g>
</g>
</svg>
