<svg width="21" height="18" viewBox="0 0 21 18" fill="none" xmlns="http://www.w3.org/2000/svg">
<path d="M17.3713 9.75H5.577V8.25H17.3713L15.552 6.43075L16.6057 5.34625L20.2595 9L16.6057 12.6538L15.552 11.5693L17.3713 9.75ZM12.202 5.86525V2.30775C12.202 2.21792 12.1732 2.14417 12.1155 2.0865C12.0577 2.02883 11.9839 2 11.8943 2H2.30775C2.21792 2 2.14417 2.02883 2.0865 2.0865C2.02883 2.14417 2 2.21792 2 2.30775V15.6923C2 15.7821 2.02883 15.8558 2.0865 15.9135C2.14417 15.9712 2.21792 16 2.30775 16H11.8943C11.9839 16 12.0577 15.9712 12.1155 15.9135C12.1732 15.8558 12.202 15.7821 12.202 15.6923V12.1348H13.702V15.6923C13.702 16.1909 13.5253 16.6169 13.172 16.9703C12.8188 17.3234 12.3929 17.5 11.8943 17.5H2.30775C1.80908 17.5 1.38308 17.3234 1.02975 16.9703C0.676583 16.6169 0.5 16.1909 0.5 15.6923V2.30775C0.5 1.80908 0.676583 1.38308 1.02975 1.02975C1.38308 0.676583 1.80908 0.5 2.30775 0.5H11.8943C12.3929 0.5 12.8188 0.676583 13.172 1.02975C13.5253 1.38308 13.702 1.80908 13.702 2.30775V5.86525H12.202Z" fill="#1C1B1F"/>
</svg>
