<svg width="22" height="23" viewBox="0 0 22 23" fill="none" xmlns="http://www.w3.org/2000/svg">
<path id="phone_in_talk" d="M20.6316 11.0978C20.4735 8.46911 19.4915 6.23486 17.6854 4.39509C15.8793 2.55509 13.686 1.55471 11.1054 1.39394V0C12.5878 0.0715556 13.975 0.40703 15.2671 1.00642C16.5591 1.60605 17.6923 2.40222 18.6669 3.39494C19.6414 4.38766 20.423 5.54219 21.0117 6.85853C21.6003 8.17464 21.9298 9.58775 22 11.0978H20.6316ZM15.1579 11.0978C14.9999 10.0257 14.5481 9.10533 13.8025 8.3368C13.057 7.56828 12.1579 7.11258 11.1054 6.9697V5.57576C12.5422 5.71864 13.7653 6.30885 14.7748 7.34641C15.7844 8.38373 16.3683 9.63421 16.5263 11.0978H15.1579ZM20.4315 23C18.1245 23 15.7597 22.4116 13.3369 21.2349C10.9141 20.058 8.65887 18.4062 6.57113 16.2795C4.50094 14.153 2.88815 11.8602 1.73275 9.40108C0.577585 6.94194 0 4.53739 0 2.18744C0 1.76926 0.136841 1.41624 0.410524 1.12839C0.684207 0.840778 1.02631 0.69697 1.43684 0.69697H4.82092C5.19291 0.69697 5.51745 0.816268 5.79455 1.05486C6.07188 1.29346 6.2597 1.59955 6.358 1.97312L7.03673 5.29697C7.09991 5.68658 7.0885 6.02705 7.00252 6.31838C6.91654 6.60971 6.76476 6.84831 6.54718 7.03417L3.54488 9.88617C4.10616 10.9244 4.72673 11.889 5.40661 12.78C6.08648 13.6709 6.81151 14.5149 7.5817 15.3117C8.37629 16.1214 9.23155 16.8742 10.1475 17.5703C11.0632 18.2663 12.0684 18.9235 13.1631 19.542L16.0895 16.5074C16.3123 16.2625 16.5627 16.1013 16.8407 16.0237C17.1188 15.9459 17.4262 15.9302 17.763 15.9766L20.6418 16.5771C21.0138 16.67 21.3157 16.8609 21.5474 17.1496C21.7789 17.4382 21.8946 17.7692 21.8946 18.1428V21.5364C21.8946 21.9545 21.7535 22.303 21.4711 22.5818C21.1885 22.8606 20.842 23 20.4315 23ZM2.90275 8.57796L5.52908 6.1173C5.61666 6.04575 5.67367 5.94748 5.70013 5.82249C5.72636 5.69726 5.72191 5.5811 5.68679 5.474L5.07887 2.51989C5.04375 2.37678 4.9824 2.26957 4.89482 2.19824C4.80701 2.12669 4.69298 2.09091 4.55271 2.09091H1.74473C1.63936 2.09091 1.55167 2.12669 1.48165 2.19824C1.41141 2.26957 1.37628 2.35889 1.37628 2.46623C1.40251 3.41875 1.54905 4.41321 1.81589 5.44961C2.0825 6.48623 2.44479 7.52902 2.90275 8.57796ZM14.4659 20.1961C15.3902 20.6626 16.3757 21.0075 17.4223 21.2307C18.4687 21.4542 19.3805 21.574 20.1578 21.59C20.2631 21.59 20.3508 21.5543 20.4209 21.4827C20.4911 21.4111 20.5262 21.3218 20.5262 21.2147V18.416C20.5262 18.2731 20.4911 18.157 20.4209 18.0675C20.3508 17.9783 20.2456 17.9158 20.1051 17.8801L17.5735 17.3518C17.4684 17.316 17.3764 17.3116 17.2974 17.3385C17.2183 17.3652 17.1349 17.4233 17.0474 17.5128L14.4659 20.1961Z" fill="#1C1B1F"/>
</svg>
