<svg width="24" height="24" viewBox="0 0 24 24" fill="none" xmlns="http://www.w3.org/2000/svg">
<g id="favorite">
<mask id="mask0_12460_59717" style="mask-type:alpha" maskUnits="userSpaceOnUse" x="0" y="0" width="24" height="24">
<rect id="Bounding box" x="1" y="1" width="22" height="22" fill="#D9D9D9" stroke="white" stroke-width="2"/>
</mask>
<g mask="url(#mask0_12460_59717)">
<path id="favorite_2" d="M11.9966 20.3253L10.8927 19.333C9.23505 17.8292 7.86422 16.5369 6.78023 15.4561C5.69627 14.3753 4.8373 13.4135 4.20333 12.5705C3.56935 11.7276 3.1264 10.9587 2.87448 10.2638C2.62255 9.56892 2.49658 8.8638 2.49658 8.14841C2.49658 6.7292 2.97511 5.54106 3.93216 4.58401C4.88921 3.62696 6.07734 3.14844 7.49656 3.14844C8.36964 3.14844 9.19464 3.35261 9.97156 3.76096C10.7485 4.1693 11.4235 4.75487 11.9966 5.51769C12.5696 4.75487 13.2446 4.1693 14.0216 3.76096C14.7985 3.35261 15.6235 3.14844 16.4966 3.14844C17.9158 3.14844 19.1039 3.62696 20.061 4.58401C21.018 5.54106 21.4965 6.7292 21.4965 8.14841C21.4965 8.8638 21.3706 9.56892 21.1186 10.2638C20.8667 10.9587 20.4238 11.7276 19.7898 12.5705C19.1558 13.4135 18.2984 14.3753 17.2177 15.4561C16.1369 16.5369 14.7645 17.8292 13.1004 19.333L11.9966 20.3253Z" fill="#931935"/>
</g>
</g>
</svg>
