<svg width="22" height="22" viewBox="0 0 22 22" fill="none" xmlns="http://www.w3.org/2000/svg">
<path d="M3.20988 5.6545C3.20988 4.30418 4.30502 3.20901 5.65422 3.20901H6.76665C7.41098 3.20901 8.03044 2.95386 8.48882 2.49871L9.26616 1.7203C10.2186 0.763513 11.7667 0.759189 12.7235 1.71166L12.7332 1.7203L13.5116 2.49871C13.9689 2.95386 14.5883 3.20901 15.2338 3.20901H16.3451C17.6954 3.20901 18.7905 4.30418 18.7905 5.6545V6.76481C18.7905 7.41132 19.0457 8.02972 19.5008 8.48811L20.2792 9.26646C21.2359 10.2189 21.2413 11.766 20.2889 12.7239L20.2792 12.7336L19.5008 13.512C19.0457 13.9683 18.7905 14.5888 18.7905 15.2332V16.3456C18.7905 17.696 17.6954 18.79 16.3451 18.79H15.2338C14.5883 18.79 13.9689 19.0463 13.5116 19.5014L12.7332 20.2787C11.7818 21.2366 10.2337 21.2409 9.27589 20.2885C9.27265 20.2852 9.26941 20.282 9.26616 20.2787L8.48882 19.5014C8.03044 19.0463 7.41098 18.79 6.76665 18.79H5.65422C4.30502 18.79 3.20988 17.696 3.20988 16.3456V15.2332C3.20988 14.5888 2.95367 13.9683 2.49853 13.512L1.72123 12.7336C0.763387 11.7811 0.759063 10.233 1.7115 9.27619L1.72123 9.26646L2.49853 8.48811C2.95367 8.02972 3.20988 7.41132 3.20988 6.76481V5.6545Z" stroke="black" stroke-width="1.3" stroke-linecap="round" stroke-linejoin="round"/>
<path d="M8 14L14 8" stroke="black" stroke-linecap="round" stroke-linejoin="round"/>
<path d="M13.2222 13.5833C13.1287 13.5833 13.0379 13.5459 12.9691 13.4766C12.9604 13.4678 12.9308 13.4308 12.8861 13.3294C12.8672 13.2866 12.8611 13.2568 12.8611 13.2147C12.8611 13.1628 12.8717 13.1176 12.8861 13.0851C12.9175 13.0141 12.9445 12.9777 12.9691 12.9528C13.0906 12.8305 13.3538 12.8305 13.4753 12.9528C13.5165 12.9943 13.543 13.0301 13.5596 13.0588C13.5758 13.1178 13.5833 13.1714 13.5833 13.2147C13.5833 13.2534 13.5779 13.295 13.5593 13.3581C13.535 13.4048 13.5035 13.4483 13.4753 13.4766C13.4065 13.5459 13.3157 13.5833 13.2222 13.5833Z" fill="black" stroke="black" stroke-width="1.5"/>
<path d="M8.4913 8.54385C8.49286 8.54138 8.4942 8.53935 8.49532 8.5377L8.49979 8.53384L8.51619 8.51786C8.65976 8.37787 8.91378 8.39114 9.03008 8.50859L9.0329 8.51142C9.09886 8.57733 9.13891 8.67092 9.13891 8.77093C9.13891 8.82188 9.13624 8.84931 9.1337 8.86502C9.13177 8.87694 9.12983 8.88269 9.12803 8.88698C9.11426 8.91754 9.08571 8.96423 9.0178 9.04466C8.99559 9.06389 8.96188 9.08621 8.90125 9.11332L9.20744 9.79798L8.90125 9.11332C8.8659 9.12913 8.82226 9.13891 8.77781 9.13891C8.74433 9.13891 8.7149 9.13377 8.66917 9.11332C8.62034 9.09148 8.58543 9.0733 8.5598 9.05752C8.54899 9.05087 8.5411 9.04541 8.53554 9.04128C8.49548 8.99109 8.46731 8.94316 8.44229 8.88679C8.42225 8.84058 8.41669 8.80998 8.41669 8.77093C8.41669 8.71814 8.42712 8.67451 8.44163 8.64165C8.46286 8.59359 8.47931 8.56282 8.4913 8.54385Z" fill="black" stroke="black" stroke-width="1.5"/>
</svg>
