<svg width="20" height="19" viewBox="0 0 20 19" fill="none" xmlns="http://www.w3.org/2000/svg">
<path d="M9.9857 12.1714C11.4611 12.1714 12.6571 10.9754 12.6571 9.49998C12.6571 8.02455 11.4611 6.82855 9.9857 6.82855C8.51027 6.82855 7.31427 8.02455 7.31427 9.49998C7.31427 10.9754 8.51027 12.1714 9.9857 12.1714Z" stroke="#292D32" stroke-width="1.5" stroke-miterlimit="10" stroke-linecap="round" stroke-linejoin="round"/>
<path d="M1 10.2924V8.70751C1 7.77096 1.7634 6.99654 2.70643 6.99654C4.33203 6.99654 4.99664 5.84386 4.17935 4.43003C3.71233 3.61955 3.99075 2.56593 4.80804 2.09766L6.36179 1.20613C7.07131 0.782883 7.98739 1.03503 8.40951 1.74645L8.5083 1.91755C9.31661 3.33138 10.6458 3.33138 11.4631 1.91755L11.5619 1.74645C11.984 1.03503 12.9001 0.782883 13.6096 1.20613L15.1634 2.09766C15.9807 2.56593 16.2591 3.61955 15.7921 4.43003C14.9748 5.84386 15.6394 6.99654 17.265 6.99654C18.199 6.99654 18.9714 7.76196 18.9714 8.70751V10.2924C18.9714 11.229 18.208 12.0035 17.265 12.0035C15.6394 12.0035 14.9748 13.1561 15.7921 14.57C16.2591 15.3895 15.9807 16.4341 15.1634 16.9023L13.6096 17.7939C12.9001 18.2171 11.984 17.965 11.5619 17.2535L11.4631 17.0824C10.6548 15.6686 9.32559 15.6686 8.5083 17.0824L8.40951 17.2535C7.98739 17.965 7.07131 18.2171 6.36179 17.7939L4.80804 16.9023C3.99075 16.4341 3.71233 15.3804 4.17935 14.57C4.99664 13.1561 4.33203 12.0035 2.70643 12.0035C1.7634 12.0035 1 11.229 1 10.2924Z" stroke="#292D32" stroke-width="1.5" stroke-miterlimit="10" stroke-linecap="round" stroke-linejoin="round"/>
</svg>
