<svg width="16" height="20" viewBox="0 0 16 20" fill="none" xmlns="http://www.w3.org/2000/svg">
<path d="M4.25 9.66974V8.16974H11.75V9.66974H4.25ZM4.25 5.66974V4.16974H11.75V5.66974H4.25ZM2 12.1697H9.5C9.94483 12.1697 10.3563 12.2659 10.7345 12.4582C11.1128 12.6506 11.434 12.9223 11.698 13.2735L14 16.2737V2.22749C14 2.13766 13.9712 2.06391 13.9135 2.00624C13.8558 1.94857 13.7821 1.91974 13.6923 1.91974H2.30775C2.21792 1.91974 2.14417 1.94857 2.0865 2.00624C2.02883 2.06391 2 2.13766 2 2.22749V12.1697ZM2.30775 17.9197H13.3673L10.5173 14.191C10.3916 14.0255 10.2419 13.8972 10.0682 13.8062C9.89458 13.7152 9.70517 13.6697 9.5 13.6697H2V17.612C2 17.7018 2.02883 17.7756 2.0865 17.8332C2.14417 17.8909 2.21792 17.9197 2.30775 17.9197ZM13.6923 19.4197H2.30775C1.80258 19.4197 1.375 19.2447 1.025 18.8947C0.675 18.5447 0.5 18.1172 0.5 17.612V2.22749C0.5 1.72232 0.675 1.29474 1.025 0.944739C1.375 0.594739 1.80258 0.419739 2.30775 0.419739H13.6923C14.1974 0.419739 14.625 0.594739 14.975 0.944739C15.325 1.29474 15.5 1.72232 15.5 2.22749V17.612C15.5 18.1172 15.325 18.5447 14.975 18.8947C14.625 19.2447 14.1974 19.4197 13.6923 19.4197Z" fill="#1C1B1F"/>
</svg>
