<svg width="27" height="27" viewBox="0 0 27 27" fill="none" xmlns="http://www.w3.org/2000/svg">
<g id="Group 628663">
<g id="Group">
<path id="Vector" d="M13.9441 0C6.74224 0 0.883342 5.85919 0.883342 13.0607C0.883342 15.2642 1.44307 17.4361 2.50425 19.3604L0.0444739 25.3116C-0.0410531 25.5184 -0.00121831 25.7553 0.146697 25.9229C0.259463 26.0509 0.420266 26.1212 0.586048 26.1212C0.637598 26.1212 0.689734 26.1144 0.740699 26.1004L7.29963 24.3043C9.30805 25.4938 11.5997 26.1212 13.9444 26.1212C21.1459 26.1212 27.0051 20.2623 27.0051 13.0604C27.0051 5.8586 21.1456 0 13.9441 0ZM13.9441 24.9499C11.7315 24.9499 9.57078 24.3362 7.69592 23.1752C7.60248 23.1172 7.49558 23.0873 7.3875 23.0873C7.33565 23.0873 7.28381 23.094 7.23284 23.1081L1.58367 24.6549L3.69607 19.5441C3.76578 19.3754 3.75289 19.1838 3.66121 19.026C2.61028 17.2182 2.05494 15.1556 2.05494 13.0607C2.05494 6.50503 7.38837 1.1716 13.9441 1.1716C20.4998 1.1716 25.8332 6.50503 25.8332 13.0607C25.8332 19.6164 20.4998 24.9499 13.9441 24.9499Z" fill="black"/>
<path id="Vector_2" d="M19.4892 15.84L16.6565 14.36C16.4597 14.2572 16.2216 14.2744 16.0417 14.4048L13.6534 16.1344C12.3137 15.1397 11.5097 14.2516 11.4951 14.2355C11.4863 14.2255 11.4754 14.2182 11.4661 14.2091C11.4576 14.2006 11.4508 14.191 11.4415 14.1831C11.43 14.1731 10.8811 13.6886 10.1864 12.7619L11.9558 10.3185C12.0858 10.1387 12.1034 9.90055 12.0003 9.70373L10.5206 6.87138C10.3712 6.58521 10.0188 6.4742 9.73296 6.62212L7.1115 7.97473C6.8599 8.10449 6.73717 8.39563 6.81977 8.66627C8.03004 12.631 10.3656 14.7938 10.6456 15.0427C10.9467 15.3734 13.7173 18.3267 17.6943 19.5408C17.7511 19.5581 17.8085 19.5663 17.8653 19.5663C18.0798 19.5663 18.2833 19.4479 18.3858 19.2491L19.7387 16.6279C19.8864 16.3414 19.7751 15.9891 19.4892 15.84ZM8.09008 8.78753L9.75171 7.93021L10.7938 9.92487L9.48458 11.7329C8.99104 10.9363 8.48872 9.95123 8.09008 8.78753ZM17.5733 18.2681C16.4975 17.8903 15.5195 17.3754 14.6771 16.8394L16.4351 15.5661L18.4301 16.6083L17.5733 18.2681Z" fill="black"/>
</g>
</g>
</svg>
