<svg width="39" height="39" viewBox="0 0 39 39" fill="none" xmlns="http://www.w3.org/2000/svg">
<circle cx="19.6224" cy="19.1329" r="19.1329" fill="black"/>
<path d="M27.8066 11.7202C27.6948 11.6484 27.583 11.6484 27.4711 11.6843C26.5391 12.0792 25.5699 11.792 25.0107 11.0741C24.7497 10.751 24.6006 10.3202 24.6006 9.92537C24.6006 9.81768 24.5633 9.74589 24.4888 9.6741C24.4142 9.6023 24.3397 9.56641 24.2278 9.56641H20.4253C20.2017 9.56641 20.0525 9.70999 20.0525 9.92537V22.6687C20.0525 22.7045 20.0525 22.7045 20.0525 22.7404C19.978 23.3866 19.4561 23.8532 18.785 23.8532C18.0767 23.8532 17.4803 23.2789 17.4803 22.5969C17.4803 21.9507 17.9649 21.4482 18.6359 21.3764C18.8223 21.3405 18.9714 21.1969 18.9714 21.0174V16.8534C18.9714 16.638 18.8223 16.4944 18.5986 16.4944C18.5986 16.4944 18.5614 16.4944 18.5241 16.4944C15.0944 16.638 12.4476 19.2944 12.4476 22.5969C12.4476 25.9711 15.2808 28.6993 18.785 28.6993C22.0656 28.6993 24.8243 26.2583 25.0852 23.1353C25.1225 23.0994 25.1225 23.0276 25.1225 22.9917V16.0637C25.9427 16.2432 26.8001 16.315 27.6948 16.1714C27.8812 16.1355 27.993 15.9919 27.993 15.8124V12.0074C27.993 11.8997 27.9185 11.792 27.8066 11.7202ZM27.2474 15.5252C26.39 15.597 25.6072 15.5252 24.8243 15.274C24.7125 15.2381 24.6006 15.274 24.4888 15.3099C24.3769 15.3816 24.3397 15.4893 24.3397 15.597V22.8481C24.3397 22.884 24.3397 22.9199 24.3024 22.9558C24.116 25.7558 21.6556 27.9813 18.7478 27.9813C15.6536 27.9813 13.1559 25.5763 13.1559 22.5969C13.1559 19.7969 15.3181 17.4995 18.1886 17.2483V20.7302C17.3312 20.9815 16.6974 21.7353 16.6974 22.5969C16.6974 23.6738 17.6294 24.5712 18.7478 24.5712C19.7543 24.5712 20.6117 23.8532 20.7608 22.9199C20.7981 22.884 20.7981 22.8122 20.7981 22.7763V10.2843H23.8923C23.9669 10.751 24.1533 11.1459 24.4142 11.5048C25.048 12.3304 26.1663 12.7612 27.2474 12.5099V15.5252Z" fill="white" stroke="white" stroke-width="0.5"/>
</svg>
