<svg width="24" height="25" viewBox="0 0 24 25" fill="none" xmlns="http://www.w3.org/2000/svg">
<g id="Group">
<g id="Clip path group">
<mask id="mask0_8857_5767" style="mask-type:luminance" maskUnits="userSpaceOnUse" x="0" y="0" width="24" height="25">
<g id="SVGID_2_">
<path id="Vector" d="M23.7209 10.0465H12.2791V14.7907H18.8651C18.2512 17.8047 15.6837 19.5349 12.2791 19.5349C8.26047 19.5349 5.02326 16.2977 5.02326 12.2791C5.02326 8.26047 8.26047 5.02326 12.2791 5.02326C14.0093 5.02326 15.5721 5.63722 16.8 6.64187L20.3721 3.06977C18.1953 1.17209 15.4047 0 12.2791 0C5.46977 0 0 5.46977 0 12.2791C0 19.0884 5.46977 24.5581 12.2791 24.5581C18.4186 24.5581 24 20.093 24 12.2791C24 11.5535 23.8884 10.7721 23.7209 10.0465Z" fill="white"/>
</g>
</mask>
<g mask="url(#mask0_8857_5767)">
<path id="Vector_2" d="M-1.11621 19.5348V5.02319L8.37216 12.279L-1.11621 19.5348Z" fill="#FBBC05"/>
</g>
</g>
<g id="Clip path group_2">
<mask id="mask1_8857_5767" style="mask-type:luminance" maskUnits="userSpaceOnUse" x="0" y="0" width="24" height="25">
<g id="SVGID_4_">
<path id="Vector_3" d="M23.7209 10.0465H12.2791V14.7907H18.8651C18.2512 17.8047 15.6837 19.5349 12.2791 19.5349C8.26047 19.5349 5.02326 16.2977 5.02326 12.2791C5.02326 8.26047 8.26047 5.02326 12.2791 5.02326C14.0093 5.02326 15.5721 5.63722 16.8 6.64187L20.3721 3.06977C18.1953 1.17209 15.4047 0 12.2791 0C5.46977 0 0 5.46977 0 12.2791C0 19.0884 5.46977 24.5581 12.2791 24.5581C18.4186 24.5581 24 20.093 24 12.2791C24 11.5535 23.8884 10.7721 23.7209 10.0465Z" fill="white"/>
</g>
</mask>
<g mask="url(#mask1_8857_5767)">
<path id="Vector_4" d="M-1.11621 5.02332L8.37216 12.2791L12.2791 8.8745L25.6745 6.69774V-1.11621H-1.11621V5.02332Z" fill="#EA4335"/>
</g>
</g>
<g id="Group_2">
<g id="Clip path group_3">
<mask id="mask2_8857_5767" style="mask-type:luminance" maskUnits="userSpaceOnUse" x="0" y="0" width="24" height="25">
<g id="SVGID_6_">
<path id="Vector_5" d="M23.7209 10.0465H12.2791V14.7907H18.8651C18.2512 17.8047 15.6837 19.5349 12.2791 19.5349C8.26047 19.5349 5.02326 16.2977 5.02326 12.2791C5.02326 8.26047 8.26047 5.02326 12.2791 5.02326C14.0093 5.02326 15.5721 5.63722 16.8 6.64187L20.3721 3.06977C18.1953 1.17209 15.4047 0 12.2791 0C5.46977 0 0 5.46977 0 12.2791C0 19.0884 5.46977 24.5581 12.2791 24.5581C18.4186 24.5581 24 20.093 24 12.2791C24 11.5535 23.8884 10.7721 23.7209 10.0465Z" fill="white"/>
</g>
</mask>
<g mask="url(#mask2_8857_5767)">
<path id="Vector_6" d="M-1.11621 19.535L15.628 6.69774L20.0373 7.25588L25.6745 -1.11621V25.6745H-1.11621V19.535Z" fill="#34A853"/>
</g>
</g>
</g>
<g id="Group_3">
<g id="Clip path group_4">
<mask id="mask3_8857_5767" style="mask-type:luminance" maskUnits="userSpaceOnUse" x="0" y="0" width="24" height="25">
<g id="SVGID_8_">
<path id="Vector_7" d="M23.7209 10.0465H12.2791V14.7907H18.8651C18.2512 17.8047 15.6837 19.5349 12.2791 19.5349C8.26047 19.5349 5.02326 16.2977 5.02326 12.2791C5.02326 8.26047 8.26047 5.02326 12.2791 5.02326C14.0093 5.02326 15.5721 5.63722 16.8 6.64187L20.3721 3.06977C18.1953 1.17209 15.4047 0 12.2791 0C5.46977 0 0 5.46977 0 12.2791C0 19.0884 5.46977 24.5581 12.2791 24.5581C18.4186 24.5581 24 20.093 24 12.2791C24 11.5535 23.8884 10.7721 23.7209 10.0465Z" fill="white"/>
</g>
</mask>
<g mask="url(#mask3_8857_5767)">
<path id="Vector_8" d="M25.6745 25.6744L8.37221 12.279L6.13965 10.6046L25.6745 5.02319V25.6744Z" fill="#4285F4"/>
</g>
</g>
</g>
</g>
</svg>
