<svg width="42" height="43" viewBox="0 0 42 43" fill="none" xmlns="http://www.w3.org/2000/svg">
<g id="Group 628510">
<g id="Group 628400">
<path id="W" d="M29.6987 28.1095L35.1816 13.309C35.5096 12.4223 35.7439 11.7175 35.8845 11.1946C36.0251 10.6717 36.0954 10.217 36.0954 9.83051C36.0954 9.2394 35.8962 8.84154 35.4979 8.63692C35.123 8.40957 34.4435 8.2959 33.4594 8.2959V7H42V8.2959C40.9222 8.2959 40.1021 8.51188 39.5398 8.94385C39.0008 9.37581 38.5439 10.0806 38.169 11.0582L29.3473 33.6H28.1172L21.369 14.1956L13.8828 33.6H12.6527L5.34226 14.0251C4.9205 12.9338 4.53389 12.0244 4.18243 11.2969C3.85439 10.5467 3.49121 9.95556 3.09289 9.52359C2.71799 9.09162 2.28452 8.7847 1.79247 8.60282C1.30042 8.42094 0.702929 8.33 0 8.33V7H11.4577V8.33C10.2628 8.33 9.41925 8.43231 8.9272 8.63692C8.45858 8.84154 8.22427 9.2394 8.22427 9.83051C8.22427 10.1261 8.27113 10.4671 8.36485 10.8536C8.45858 11.2401 8.59916 11.6948 8.78661 12.2177L14.1289 28.0072L18.4519 16.2077C18.7799 15.321 19.0962 14.5026 19.4008 13.7523C19.7289 12.9793 19.9866 12.2859 20.1741 11.6721C19.846 11.0127 19.5414 10.4671 19.2603 10.0351C19.0025 9.60316 18.7331 9.26214 18.4519 9.01205C18.1941 8.76197 17.913 8.59145 17.6084 8.50051C17.3272 8.38684 17.0226 8.33 16.6946 8.33V7H27.4494V8.33C26.7699 8.33 26.2192 8.35274 25.7975 8.39821C25.3757 8.44367 25.0477 8.52325 24.8134 8.63692C24.6025 8.72786 24.4502 8.86427 24.3565 9.04615C24.2862 9.22803 24.251 9.44402 24.251 9.6941C24.251 10.0351 24.3096 10.4557 24.4268 10.9559C24.5674 11.4333 24.7548 12.0472 24.9891 12.7974L29.6987 28.1095Z" fill="black"/>
</g>
<g id="Group 628509">
<circle id="Ellipse 838" cx="12" cy="41" r="2" fill="black"/>
<circle id="Ellipse 839" cx="21" cy="41" r="2" fill="black"/>
<circle id="Ellipse 840" cx="30" cy="41" r="2" fill="black"/>
</g>
</g>
</svg>
