<svg width="12" height="14" viewBox="0 0 12 14" fill="none" xmlns="http://www.w3.org/2000/svg">
<path d="M2.75654 13.5834C2.38682 13.5834 2.07105 13.4525 1.80925 13.1909C1.54758 12.9291 1.41675 12.6133 1.41675 12.2436V2.50002H0.416748V1.41669H4.00008V0.512939H8.00008V1.41669H11.5834V2.50002H10.5834V12.2346C10.5834 12.6199 10.4539 12.941 10.1949 13.1979C9.93585 13.4549 9.61876 13.5834 9.24362 13.5834H2.75654ZM9.50008 2.50002H2.50008V12.2436C2.50008 12.3184 2.52411 12.3799 2.57216 12.4279C2.62022 12.476 2.68168 12.5 2.75654 12.5H9.24362C9.30779 12.5 9.36654 12.4733 9.41987 12.4198C9.47335 12.3665 9.50008 12.3077 9.50008 12.2436V2.50002ZM4.33675 11H5.41987V4.00002H4.33675V11ZM6.58029 11H7.66342V4.00002H6.58029V11Z" fill="#1C1B1F"/>
</svg>
