<svg width="18" height="18" viewBox="0 0 18 18" fill="none" xmlns="http://www.w3.org/2000/svg">
<path fill-rule="evenodd" clip-rule="evenodd" d="M9 0C8.49374 0 8.0275 0.125824 7.51713 0.33691C7.02425 0.540737 6.45181 0.841153 5.73899 1.21523L4.00805 2.12359C3.13319 2.58268 2.43306 2.95008 1.89249 3.31109C1.33245 3.68509 0.901105 4.07889 0.586984 4.61234C0.273918 5.14399 0.133083 5.71968 0.0655453 6.40525C-8.19633e-06 7.07072 -8.18602e-06 7.88911 1.86071e-07 8.91846V9.08154C-8.18602e-06 10.1108 -8.19633e-06 10.9293 0.0655453 11.5948C0.133083 12.2804 0.273918 12.856 0.586984 13.3876C0.901105 13.9211 1.33245 14.3149 1.89249 14.6889C2.43306 15.0499 3.13318 15.4173 4.00803 15.8764L5.73891 16.7847C6.45177 17.1589 7.02424 17.4592 7.51713 17.6631C8.0275 17.8742 8.49374 18 9 18C9.50626 18 9.9725 17.8742 10.4829 17.6631C10.9757 17.4592 11.5482 17.1589 12.261 16.7848L13.9919 15.8764C14.8668 15.4173 15.5669 15.0499 16.1075 14.6889C16.6676 14.3149 17.0989 13.9211 17.413 13.3876C17.7261 12.856 17.8669 12.2804 17.9344 11.5948C18 10.9293 18 10.1109 18 9.08163V8.91837C18 7.88911 18 7.07071 17.9344 6.40525C17.8669 5.71968 17.7261 5.14399 17.413 4.61234C17.0989 4.07889 16.6676 3.68509 16.1075 3.31109C15.5669 2.95008 14.8668 2.58268 13.9919 2.12358L12.261 1.21524C11.5482 0.841161 10.9757 0.540745 10.4829 0.33691C9.9725 0.125824 9.50626 0 9 0ZM6.29648 2.3409C7.04137 1.95 7.56335 1.67676 7.99702 1.4974C8.41914 1.32282 8.71577 1.25581 9 1.25581C9.28423 1.25581 9.58086 1.32282 10.003 1.4974C10.4367 1.67676 10.9587 1.95 11.7035 2.3409L13.3779 3.2196C14.2902 3.69836 14.9312 4.03562 15.4101 4.35543C15.6464 4.51321 15.832 4.65972 15.9819 4.80704L13.1934 6.20128L6.07726 2.45594L6.29648 2.3409ZM4.76762 3.14321L4.62207 3.2196C3.70977 3.69835 3.06882 4.03562 2.58992 4.35543C2.35366 4.51321 2.168 4.65972 2.01813 4.80704L9 8.298L11.8107 6.89265L4.94011 3.27658C4.87336 3.24145 4.81555 3.19599 4.76762 3.14321ZM1.41294 5.9085C1.37066 6.08756 1.33871 6.2909 1.31531 6.52837C1.25652 7.12515 1.25581 7.88182 1.25581 8.95102V9.04898C1.25581 10.1182 1.25652 10.8748 1.31531 11.4716C1.37281 12.0553 1.48204 12.4327 1.66912 12.7504C1.85515 13.0663 2.12423 13.3336 2.58992 13.6446C3.06882 13.9644 3.70977 14.3016 4.62207 14.7804L6.29648 15.6591C7.04137 16.05 7.56335 16.3232 7.99702 16.5026C8.13399 16.5592 8.25773 16.6045 8.37209 16.64V9.38805L1.41294 5.9085ZM9.62791 16.64C9.74227 16.6045 9.86601 16.5592 10.003 16.5026C10.4367 16.3232 10.9587 16.05 11.7035 15.6591L13.3779 14.7804C14.2902 14.3016 14.9312 13.9644 15.4101 13.6446C15.8757 13.3336 16.1448 13.0663 16.3309 12.7504C16.518 12.4327 16.6272 12.0553 16.6847 11.4716C16.7435 10.8748 16.7442 10.1182 16.7442 9.04898V8.95102C16.7442 7.88182 16.7435 7.12515 16.6847 6.52837C16.6613 6.29089 16.6293 6.08756 16.587 5.90849L13.814 7.29504V9.83721C13.814 10.184 13.5328 10.4651 13.186 10.4651C12.8393 10.4651 12.5581 10.184 12.5581 9.83721V7.92293L9.62791 9.38805V16.64Z" fill="black"/>
</svg>
