<svg width="236" height="72" viewBox="0 0 236 72" fill="none" xmlns="http://www.w3.org/2000/svg">
<g id="name.surname@gmail.c">
<path d="M10.0332 2.75088C9.30374 2.75811 8.52235 2.78896 7.68909 2.84345C5.90678 2.95357 4.57738 3.19214 3.70091 3.55916C2.83601 3.92607 2.12423 4.55154 1.56557 5.43558C1.05253 6.24981 0.663957 7.3518 0.399835 8.74154L0 8.71082L0.249063 2.31026L23.7495 2.07755L24.1258 8.47192L23.7266 8.51055C23.398 6.90706 22.8938 5.69832 22.2141 4.88434C21.5458 4.05868 20.573 3.47301 19.2957 3.12732C18.2157 2.82591 16.3904 2.68793 13.8197 2.71339L13.9955 20.3974C14.0072 21.5764 14.0796 22.4542 14.2127 23.0308C14.3573 23.5958 14.6109 24.0614 14.9736 24.4277C15.3011 24.7597 15.6683 24.9988 16.075 25.1451C16.4934 25.2912 17.0328 25.3783 17.6931 25.4065L17.6971 25.8052L6.59821 25.9151L6.59424 25.5164C7.26551 25.4751 7.80303 25.3773 8.20682 25.223C8.62218 25.0686 8.99032 24.8222 9.31121 24.4838C9.66649 24.1104 9.90501 23.6399 10.0268 23.0723C10.1601 22.5045 10.2208 21.6254 10.209 20.4349L10.0332 2.75088Z" fill="black"/>
<path d="M35.9139 12.9674L48.2461 12.8453L48.1907 7.27998C48.1789 6.08949 48.1007 5.21175 47.9561 4.64677C47.8231 4.08168 47.5753 3.61598 47.2127 3.24968C46.8851 2.9177 46.5121 2.67865 46.0938 2.53252C45.687 2.38627 45.1477 2.29914 44.4757 2.27112L44.4717 1.87236L55.5706 1.76245L55.5746 2.16121C54.9149 2.20242 54.3774 2.30022 53.962 2.4546C53.5582 2.60887 53.1959 2.85521 52.875 3.19361C52.5197 3.56702 52.2755 4.04338 52.1423 4.62266C52.0205 5.19027 51.9655 6.06355 51.9772 7.24249L52.1042 20.0201C52.1159 21.199 52.1883 22.071 52.3213 22.6361C52.4659 23.2011 52.7195 23.6725 53.0823 24.0504C53.4097 24.3708 53.7769 24.6099 54.1838 24.7677C54.6021 24.9138 55.1415 25.001 55.8019 25.0291L55.8058 25.4279L44.7069 25.5378L44.703 25.139C45.3742 25.0977 45.9118 24.9999 46.3156 24.8456C46.7308 24.6797 47.0989 24.4333 47.4199 24.1065C47.7752 23.733 48.0137 23.2625 48.1355 22.6949C48.2688 22.1272 48.3296 21.2481 48.3177 20.0576L48.2542 13.6601L35.922 13.7822L35.9856 20.1797C35.9973 21.3586 36.0698 22.2364 36.2029 22.8131C36.3475 23.378 36.6011 23.8437 36.9637 24.21C37.2796 24.5305 37.6409 24.7697 38.0478 24.9275C38.4662 25.0736 39.0113 25.1607 39.6833 25.1887L39.6873 25.5875L28.5884 25.6974L28.5844 25.2986C29.2557 25.2573 29.7932 25.1595 30.197 25.0052C30.6122 24.8393 30.9746 24.593 31.284 24.2662C31.6509 23.8927 31.8952 23.4221 32.0169 22.8545C32.1387 22.2869 32.1936 21.4078 32.1818 20.2174L32.0548 7.43976C32.043 6.24927 31.9705 5.37147 31.8375 4.80638C31.7045 4.24129 31.4509 3.77565 31.0767 3.40946C30.7607 3.07736 30.3936 2.83825 29.9752 2.69213C29.5569 2.546 29.0175 2.45886 28.3571 2.43072L28.3532 2.03197L39.4521 1.92206L39.456 2.32082C38.7963 2.36203 38.2588 2.45983 37.8434 2.61421C37.4397 2.76848 37.0773 3.01482 36.7564 3.35322C36.4011 3.72663 36.1569 4.20298 36.0237 4.78227C35.9019 5.34988 35.8469 6.22316 35.8586 7.40209L35.9139 12.9674Z" fill="black"/>
<path d="M79.2456 1.52802L79.5977 7.24641L79.1984 7.2677C79.0382 6.2983 78.7813 5.49747 78.4276 4.86521C78.0739 4.23295 77.5646 3.67737 76.8998 3.19846C76.3515 2.79931 75.706 2.5225 74.9633 2.36802C74.2205 2.20199 73.2354 2.12505 72.008 2.1372L68.0305 2.17659L68.1339 12.579L69.176 12.5686C70.2297 12.5582 71.0222 12.481 71.5535 12.337C72.0848 12.1931 72.5165 11.9403 72.8488 11.5786C73.1697 11.2402 73.4032 10.8449 73.5492 10.3926C73.7067 9.92871 73.8332 9.25124 73.9285 8.36022L74.3282 8.37361L74.3511 17.6671L73.9516 17.671C73.8385 16.7821 73.6751 16.067 73.4613 15.5259C73.259 14.9846 72.9765 14.525 72.6138 14.1471C72.2627 13.7807 71.8084 13.5136 71.2509 13.3457C70.6933 13.1778 69.9861 13.0981 69.1292 13.1066L68.1392 13.1164L68.1786 17.0867C68.1944 18.6701 68.2464 19.8256 68.3347 20.5529C68.4229 21.2687 68.5852 21.8682 68.8216 22.3514C69.2235 23.1797 69.826 23.7863 70.6289 24.1714C71.4432 24.5448 72.5104 24.725 73.8305 24.7119C75.22 24.6981 76.382 24.5132 77.3165 24.1572C78.2509 23.7896 79.0097 23.233 79.5929 22.4874C80.0048 21.9863 80.335 21.4166 80.5834 20.7784C80.8434 20.1401 81.0783 19.2997 81.2879 18.2573L81.6876 18.2707L81.5304 25.1731L60.809 25.3783L60.805 24.9796C61.4647 24.9384 61.9964 24.8406 62.4002 24.6864C62.8156 24.532 63.1837 24.2856 63.5046 23.9472C63.8599 23.5738 64.0984 23.1032 64.2201 22.5356C64.3533 21.9564 64.4141 21.0772 64.4024 19.8983L64.2754 7.12071C64.2637 5.94177 64.1855 5.06982 64.0409 4.50484C63.9078 3.92819 63.6599 3.45671 63.2973 3.0904C62.9813 2.75831 62.6142 2.5192 62.1958 2.37307C61.789 2.22683 61.2497 2.1397 60.5777 2.11167L60.5738 1.71291L79.2456 1.52802Z" fill="black"/>
<path d="M96.7553 1.35464L107.681 1.24646L107.684 1.64521C106.665 1.6553 105.971 1.73731 105.602 1.89124C105.291 2.03303 105.039 2.26094 104.845 2.57496C104.651 2.88898 104.556 3.24248 104.56 3.63546C104.565 4.1209 104.757 4.78945 105.136 5.64108L105.598 6.71152L111.131 19.8344L114.787 8.44113C115.259 6.97998 115.491 5.8911 115.484 5.17449C115.479 4.64282 115.376 4.12945 115.174 3.6344C114.983 3.12767 114.73 2.71982 114.415 2.41084C114.111 2.11331 113.761 1.90292 113.366 1.77968C112.983 1.65633 112.49 1.59763 111.888 1.60359L111.884 1.20483L123.052 1.09424L123.056 1.493C122.373 1.49977 121.875 1.52781 121.563 1.57714C121.263 1.62636 120.98 1.72741 120.715 1.8803C120.37 2.09179 120.089 2.39511 119.873 2.79027C119.668 3.17376 119.568 3.59088 119.573 4.04165C119.577 4.45775 119.746 5.17853 120.08 6.204L124.49 19.9102L129.15 8.16019C129.873 6.36133 130.23 4.97068 130.22 3.98823C130.21 2.95955 129.861 2.23477 129.174 1.81388C128.755 1.56373 128.122 1.44284 127.277 1.45121L127.273 1.05245L135.315 0.972817L135.319 1.37157C134.544 1.46016 133.955 1.61627 133.552 1.83989C133.16 2.05183 132.77 2.44293 132.382 3.01318C131.811 3.82799 131.102 5.29727 130.255 7.42102L123.287 24.7597L122.575 24.7667L116.208 6.36372L110.122 24.89L109.34 24.8978L101.391 6.31971L100.857 5.05925C100.489 4.2075 100.182 3.59212 99.9353 3.2131C99.6883 2.83409 99.3901 2.5365 99.0405 2.32033C98.7608 2.13815 98.4584 2.00822 98.1333 1.93052C97.8083 1.85282 97.3503 1.79378 96.7593 1.7534L96.7553 1.35464Z" fill="black"/>
<path d="M146.42 11.8731L158.752 11.751L158.697 6.18574C158.685 4.99524 158.606 4.11751 158.462 3.55253C158.329 2.98744 158.081 2.52174 157.718 2.15543C157.391 1.82346 157.018 1.5844 156.6 1.43827C156.193 1.29203 155.653 1.2049 154.982 1.17687L154.978 0.778114L166.076 0.668212L166.08 1.06697C165.421 1.10818 164.883 1.20598 164.468 1.36036C164.064 1.51463 163.702 1.76097 163.381 2.09936C163.026 2.47278 162.781 2.94913 162.648 3.52842C162.526 4.09603 162.471 4.96931 162.483 6.14824L162.61 18.9258C162.622 20.1048 162.694 20.9768 162.827 21.5419C162.972 22.1069 163.225 22.5783 163.588 22.9561C163.916 23.2766 164.283 23.5157 164.69 23.6735C165.108 23.8196 165.647 23.9067 166.308 23.9349L166.312 24.3336L155.213 24.4435L155.209 24.0448C155.88 24.0035 156.418 23.9057 156.821 23.7514C157.237 23.5854 157.605 23.3391 157.926 23.0122C158.281 22.6388 158.52 22.1683 158.641 21.6007C158.775 21.0329 158.835 20.1538 158.824 18.9633L158.76 12.5659L146.428 12.688L146.491 19.0854C146.503 20.2644 146.576 21.1422 146.709 21.7188C146.853 22.2838 147.107 22.7494 147.47 23.1157C147.785 23.4363 148.147 23.6755 148.554 23.8333C148.972 23.9794 149.517 24.0665 150.189 24.0945L150.193 24.4932L139.094 24.6031L139.09 24.2044C139.761 24.1631 140.299 24.0653 140.703 23.911C141.118 23.7451 141.48 23.4987 141.79 23.172C142.157 22.7985 142.401 22.3279 142.523 21.7603C142.644 21.1927 142.699 20.3136 142.688 19.1231L142.561 6.34552C142.549 5.15502 142.476 4.27723 142.343 3.71214C142.21 3.14705 141.957 2.68141 141.583 2.31521C141.267 1.98312 140.899 1.74401 140.481 1.59788C140.063 1.45175 139.523 1.36462 138.863 1.33648L138.859 0.937723L149.958 0.82782L149.962 1.22658C149.302 1.26779 148.765 1.36559 148.349 1.51997C147.945 1.67424 147.583 1.92057 147.262 2.25897C146.907 2.63239 146.663 3.10874 146.529 3.68803C146.408 4.25564 146.353 5.12892 146.364 6.30785L146.42 11.8731Z" fill="black"/>
<path d="M182.178 0.508767L182.182 0.907525C181.523 0.948736 180.985 1.04653 180.57 1.20092C180.166 1.35519 179.804 1.60152 179.483 1.93992C179.036 2.40672 178.764 3.05095 178.668 3.87262C178.605 4.48589 178.577 5.19128 178.585 5.9888L178.712 18.7664C178.722 19.7257 178.775 20.4823 178.874 21.0362C178.972 21.5901 179.127 22.0336 179.338 22.3667C179.644 22.8261 180.035 23.169 180.512 23.3954C180.989 23.6103 181.622 23.737 182.41 23.7754L182.414 24.1742L171.315 24.2841L171.311 23.8853C171.982 23.844 172.52 23.7462 172.923 23.5919C173.339 23.426 173.701 23.1797 174.01 22.8529C174.377 22.4794 174.622 22.0088 174.743 21.4412C174.865 20.8736 174.92 19.9946 174.908 18.8041L174.781 6.02647C174.769 4.83597 174.697 3.95818 174.564 3.39309C174.431 2.828 174.177 2.36235 173.803 1.99616C173.487 1.66407 173.12 1.42496 172.702 1.27883C172.283 1.1327 171.744 1.04557 171.084 1.01743L171.08 0.61867L182.178 0.508767Z" fill="black"/>
<path d="M196.566 0.903807C195.837 0.91103 195.055 0.941886 194.222 0.996375C192.44 1.1065 191.11 1.34507 190.234 1.71209C189.369 2.07899 188.657 2.70446 188.099 3.58851C187.586 4.40274 187.197 5.50473 186.933 6.89446L186.533 6.86374L186.782 0.463182L210.283 0.230477L210.659 6.62485L210.26 6.66348C209.931 5.05998 209.427 3.85124 208.747 3.03726C208.079 2.21161 207.106 1.62593 205.829 1.28024C204.749 0.978834 202.923 0.840858 200.353 0.866313L200.528 18.5504C200.54 19.7293 200.613 20.6071 200.746 21.1837C200.89 21.7487 201.144 22.2144 201.507 22.5807C201.834 22.9126 202.201 23.1518 202.608 23.298C203.026 23.4441 203.566 23.5313 204.226 23.5594L204.23 23.9582L193.131 24.0681L193.127 23.6693C193.799 23.628 194.336 23.5302 194.74 23.3759C195.155 23.2215 195.523 22.9751 195.844 22.6367C196.2 22.2633 196.438 21.7928 196.56 21.2252C196.693 20.6575 196.754 19.7784 196.742 18.5879L196.566 0.903807Z" fill="black"/>
<path d="M233.558 0L233.91 5.71839L233.511 5.73968C233.351 4.77028 233.094 3.96945 232.74 3.33719C232.386 2.70493 231.877 2.14934 231.212 1.67043C230.664 1.27129 230.018 0.994474 229.276 0.839998C228.533 0.673963 227.548 0.597023 226.32 0.609177L222.343 0.648563L222.446 11.0509L223.488 11.0406C224.542 11.0302 225.335 10.953 225.866 10.809C226.397 10.665 226.829 10.4122 227.161 10.0506C227.482 9.71221 227.716 9.31688 227.862 8.86462C228.019 8.40069 228.146 7.72322 228.241 6.8322L228.641 6.84558L228.663 16.1391L228.264 16.143C228.151 15.2541 227.988 14.539 227.774 13.9978C227.571 13.4566 227.289 12.997 226.926 12.6191C226.575 12.2527 226.121 11.9855 225.563 11.8177C225.006 11.6498 224.299 11.5701 223.442 11.5786L222.452 11.5884L222.491 15.5586C222.507 17.1421 222.559 18.2975 222.647 19.0249C222.735 19.7407 222.898 20.3402 223.134 20.8233C223.536 21.6516 224.138 22.2583 224.941 22.6434C225.756 23.0168 226.823 23.1969 228.143 23.1839C229.532 23.1701 230.694 22.9852 231.629 22.6292C232.563 22.2616 233.322 21.705 233.905 20.9594C234.317 20.4583 234.647 19.8886 234.896 19.2504C235.156 18.6121 235.391 17.7717 235.6 16.7293L236 16.7426L235.843 23.6451L215.121 23.8503L215.117 23.4516C215.777 23.4103 216.309 23.3126 216.713 23.1583C217.128 23.0039 217.496 22.7576 217.817 22.4192C218.172 22.0457 218.411 21.5752 218.533 21.0076C218.666 20.4283 218.727 19.5492 218.715 18.3703L218.588 5.59269C218.576 4.41375 218.498 3.54179 218.353 2.97682C218.22 2.40017 217.972 1.92869 217.61 1.56238C217.294 1.23029 216.927 0.99118 216.508 0.845051C216.101 0.698807 215.562 0.611673 214.89 0.583649L214.886 0.184891L233.558 0Z" fill="black"/>
<path d="M10.9948 69.3034L10.9908 68.9047C11.6621 68.8633 12.1996 68.7655 12.6034 68.6113C13.0187 68.4453 13.381 68.199 13.6904 67.8723C14.0573 67.4987 14.3016 67.0282 14.4233 66.4606C14.5451 65.8929 14.6 65.0139 14.5882 63.8234L14.4612 51.0458C14.4494 49.8553 14.377 48.9775 14.244 48.4124C14.111 47.8473 13.8574 47.3817 13.4831 47.0155C13.1672 46.6834 12.8 46.4443 12.3816 46.2982C11.9633 46.152 11.4239 46.0649 10.7636 46.0368L10.7596 45.638L22.1711 45.525C23.3291 45.5135 24.0876 45.5176 24.4468 45.5371C25.7679 45.6281 26.8653 45.9293 27.7389 46.4409C28.4962 46.8957 29.0812 47.4968 29.4939 48.2441C29.9182 48.9912 30.1351 49.8329 30.1444 50.7691C30.1594 52.2832 29.7028 53.5304 28.7745 54.5106C28.4423 54.8722 28.0631 55.1765 27.6371 55.4235C27.211 55.6589 26.594 55.9251 25.7864 56.222C26.8998 56.396 27.7645 56.5897 28.3804 56.8032C28.9963 57.0168 29.5551 57.3176 30.057 57.7056C30.804 58.2993 31.3847 59.0449 31.7989 59.9424C32.2246 60.8283 32.4426 61.7913 32.453 62.8316C32.4634 63.8834 32.2588 64.8506 31.8391 65.7332C31.4308 66.6042 30.853 67.3093 30.1057 67.8484C29.4272 68.3291 28.6141 68.6666 27.6664 68.8609C26.7303 69.0551 25.4054 69.1607 23.6916 69.1777L10.9948 69.3034ZM18.2163 46.1017L18.3187 56.4L19.7256 56.3861C20.3856 56.3796 21.0683 56.3266 21.7737 56.2271C22.3865 56.1286 22.8776 56.0139 23.2468 55.8831C23.6277 55.7522 23.9734 55.5753 24.2838 55.3526C24.87 54.9076 25.316 54.3425 25.6219 53.6575C25.9392 52.9608 26.0938 52.1964 26.0855 51.3642C26.0768 50.4857 25.9006 49.6552 25.557 48.8726C25.2248 48.0783 24.7845 47.4642 24.2359 47.0304C23.7573 46.6537 23.2105 46.399 22.5954 46.2664C21.9919 46.1336 21.0706 46.0734 19.8316 46.0857L18.2163 46.1017ZM18.324 56.9375L18.395 64.0805C18.4036 64.9473 18.4684 65.646 18.5895 66.1766C18.7222 66.707 18.9293 67.1557 19.2109 67.5228C19.8091 68.2914 20.8262 68.6686 22.262 68.6543C24.1263 68.6359 25.5919 68.1128 26.6586 67.085C27.737 66.0571 28.2674 64.6647 28.25 62.9079C28.24 61.9023 28.0628 60.9735 27.7185 60.1215C27.3741 59.258 26.9159 58.5979 26.3439 58.1412C25.2933 57.2962 23.6563 56.8847 21.4331 56.9067L18.324 56.9375Z" fill="black"/>
<path d="M38.9134 57.3578C38.8941 55.416 39.2932 53.6146 40.1104 51.9535C40.9276 50.2809 42.129 48.8183 43.7147 47.5657C44.8983 46.6408 46.1767 45.9288 47.5498 45.4297C48.9228 44.9191 50.3099 44.6568 51.711 44.643C53.4942 44.6253 55.2235 45.0012 56.8987 45.7707C58.5739 46.5285 60.0438 47.6121 61.3085 49.0214C63.3695 51.3129 64.4146 53.9323 64.4439 56.8796C64.4586 58.3591 64.2064 59.7891 63.6875 61.1698C63.1685 62.5505 62.4051 63.8123 61.3974 64.9551C60.1608 66.3775 58.6895 67.4845 56.9834 68.2758C55.289 69.0671 53.5096 69.472 51.6453 69.4904C49.8041 69.5087 48.0403 69.1504 46.3539 68.4158C44.6674 67.6811 43.2094 66.6321 41.9799 65.2687C41.0081 64.2033 40.2549 62.9913 39.7203 61.6326C39.1971 60.2622 38.9282 58.8373 38.9134 57.3578ZM43.1194 57.5763C43.1527 60.9281 44.0955 63.745 45.948 66.027C46.7803 67.0476 47.6562 67.7902 48.5757 68.2551C49.5067 68.7082 50.5743 68.9288 51.7786 68.9169C52.9944 68.9049 54.0574 68.6632 54.9676 68.1918C55.8893 67.7203 56.7619 66.9603 57.5853 65.9118C59.3919 63.582 60.2783 60.7239 60.2447 57.3373C60.2262 55.4764 59.954 53.7221 59.4281 52.0743C58.9136 50.4149 58.1932 49.0118 57.267 47.865C56.5165 46.9246 55.6817 46.2451 54.7627 45.8265C53.8551 45.3962 52.7818 45.1872 51.5428 45.1995C50.3154 45.2116 49.2522 45.436 48.3533 45.8726C47.4659 46.3091 46.6449 47.0108 45.8902 47.9777C44.9868 49.131 44.2944 50.5423 43.813 52.2116C43.3316 53.8809 43.1004 55.6691 43.1194 57.5763Z" fill="black"/>
<path d="M80.9847 44.9426L80.9887 45.3414C80.329 45.3826 79.7915 45.4804 79.3761 45.6348C78.9607 45.7892 78.5984 46.0355 78.2891 46.3738C77.9109 46.7705 77.6609 47.2585 77.5393 47.8377C77.4293 48.4167 77.3812 49.4113 77.3952 50.8214L77.4928 60.6343C77.5086 62.2294 77.578 63.3846 77.7009 64.1001C77.8353 64.8039 78.0908 65.4544 78.4673 66.0518C79.0322 66.9594 79.7219 67.6172 80.5367 68.0253C81.3628 68.4217 82.3954 68.6137 83.6344 68.6015C84.8387 68.5895 85.9832 68.399 87.0681 68.03C88.1645 67.6492 89.0742 67.1316 89.7973 66.4771C90.2449 66.0681 90.5705 65.6256 90.7743 65.1497C90.9895 64.6736 91.1283 64.0711 91.1906 63.3423C91.2322 62.8679 91.2442 61.7466 91.2266 59.9782L91.1303 50.2866C91.1185 49.0961 91.0402 48.2184 90.8957 47.6534C90.7627 47.0883 90.5148 46.6226 90.1522 46.2563C89.8247 45.9243 89.4517 45.6853 89.0333 45.5391C88.6266 45.3929 88.093 45.3057 87.4326 45.2776L87.4287 44.8788L95.4358 44.7995L95.4398 45.1983C94.7801 45.2395 94.2426 45.3373 93.8272 45.4917C93.4234 45.646 93.0611 45.8923 92.7402 46.2307C92.3849 46.6041 92.1407 47.0804 92.0075 47.6597C91.8857 48.2273 91.8307 49.1006 91.8424 50.2796L91.9511 61.2194C91.9672 62.8375 91.8517 64.0351 91.6047 64.812C91.3691 65.5772 90.8839 66.2814 90.1492 66.9244C88.4731 68.3975 86.066 69.1496 82.9279 69.1807C79.651 69.2131 77.2298 68.5493 75.6645 67.1892C74.6483 66.3208 74.0347 65.1709 73.8236 63.7397C73.7491 63.2318 73.7052 62.3133 73.692 60.9841L73.5874 50.4603C73.5756 49.2698 73.5032 48.392 73.3702 47.8269C73.2372 47.2619 72.9836 46.7962 72.6094 46.43C72.2934 46.0979 71.9262 45.8588 71.5079 45.7127C71.1011 45.5664 70.5617 45.4793 69.8898 45.4513L69.8858 45.0525L80.9847 44.9426Z" fill="black"/>
<path d="M109.58 45.197C108.851 45.2042 108.07 45.2351 107.236 45.2895C105.454 45.3997 104.125 45.6382 103.248 46.0053C102.383 46.3722 101.671 46.9976 101.113 47.8817C100.6 48.6959 100.211 49.7979 99.9471 51.1876L99.5472 51.1569L99.7963 44.7563L123.297 44.5236L123.673 50.918L123.274 50.9566C122.945 49.3531 122.441 48.1444 121.761 47.3304C121.093 46.5048 120.12 45.9191 118.843 45.5734C117.763 45.272 115.938 45.134 113.367 45.1595L113.543 62.8435C113.554 64.0225 113.627 64.9003 113.76 65.4769C113.905 66.0419 114.158 66.5075 114.521 66.8738C114.848 67.2058 115.216 67.4449 115.622 67.5912C116.041 67.7373 116.58 67.8244 117.24 67.8526L117.244 68.2513L106.145 68.3612L106.141 67.9625C106.813 67.9211 107.35 67.8233 107.754 67.6691C108.169 67.5147 108.538 67.2683 108.858 66.9299C109.214 66.5565 109.452 66.086 109.574 65.5184C109.707 64.9506 109.768 64.0715 109.756 62.881L109.58 45.197Z" fill="black"/>
<path d="M138.999 44.3682L139.003 44.7669C138.344 44.8081 137.806 44.9059 137.391 45.0603C136.987 45.2146 136.625 45.4609 136.304 45.7993C135.857 46.2661 135.585 46.9103 135.489 47.732C135.426 48.3453 135.398 49.0507 135.406 49.8482L135.533 62.6258C135.542 63.5851 135.596 64.3417 135.694 64.8956C135.793 65.4495 135.947 65.893 136.159 66.2261C136.465 66.6854 136.856 67.0283 137.333 67.2548C137.81 67.4697 138.443 67.5964 139.231 67.6348L139.234 68.0336L128.136 68.1435L128.132 67.7447C128.803 67.7034 129.34 67.6056 129.744 67.4513C130.159 67.2854 130.522 67.0391 130.831 66.7123C131.198 66.3388 131.442 65.8682 131.564 65.3006C131.686 64.733 131.741 63.8539 131.729 62.6634L131.602 49.8859C131.59 48.6954 131.518 47.8176 131.385 47.2525C131.252 46.6874 130.998 46.2217 130.624 45.8555C130.308 45.5235 129.941 45.2843 129.522 45.1382C129.104 44.9921 128.565 44.905 127.904 44.8768L127.9 44.4781L138.999 44.3682Z" fill="black"/>
<path d="M161.572 67.8471C162.26 68.2795 163.028 68.6129 163.875 68.8473C164.735 69.0931 165.593 69.2117 166.45 69.2032C167.179 69.196 167.867 69.1025 168.514 68.9227C169.172 68.7543 169.697 68.5237 170.088 68.2309C170.433 67.9732 170.702 67.6757 170.895 67.3386C171.1 66.9898 171.281 66.5141 171.437 65.9114L171.715 65.9434C171.677 66.7876 171.54 67.4998 171.302 68.0802C171.077 68.6719 170.706 69.242 170.19 69.7904C168.827 71.2373 166.842 71.9736 164.237 71.9994C162.72 72.0144 161.443 71.7554 160.407 71.2224C159.476 70.7345 158.477 69.8486 157.41 68.5645L157.305 68.4442C156.286 68.4543 155.225 68.3029 154.122 67.9902C153.03 67.6889 152.001 67.2541 151.034 66.6857C149.124 65.5718 147.633 64.1012 146.561 62.2738C145.5 60.4464 144.959 58.452 144.938 56.2906C144.919 54.3604 145.318 52.5647 146.135 50.9037C146.952 49.231 148.154 47.7684 149.739 46.5159C150.9 45.5912 152.172 44.8793 153.557 44.3801C154.942 43.8693 156.334 43.607 157.736 43.5931C159.38 43.5768 160.981 43.8904 162.539 44.5339C163.726 45.0423 164.833 45.7307 165.86 46.599C166.899 47.4557 167.778 48.4295 168.495 49.5205C169.765 51.4499 170.411 53.5589 170.434 55.8474C170.448 57.3153 170.196 58.7396 169.677 60.1203C169.17 61.4893 168.424 62.7509 167.439 63.905C166.627 64.8609 165.766 65.6439 164.857 66.254C163.948 66.8641 162.853 67.3951 161.572 67.8471ZM151.85 64.9263C152.693 64.6752 153.532 64.5456 154.365 64.5373C155.396 64.5271 156.388 64.7196 157.341 65.1147C157.748 65.2841 158.168 65.5053 158.599 65.7785C159.03 66.0516 159.73 66.5302 160.698 67.2142L160.855 67.334C161.604 66.922 162.247 66.4417 162.786 65.8931C163.337 65.3443 163.868 64.6282 164.38 63.7446C165.645 61.6167 166.263 59.1369 166.235 56.3051C166.216 54.4558 165.944 52.6957 165.418 51.0248C164.903 49.3538 164.183 47.9507 163.257 46.8155C162.506 45.8866 161.672 45.2071 160.753 44.777C159.845 44.3467 158.783 44.1376 157.567 44.1496C156.34 44.1618 155.271 44.392 154.361 44.8403C153.462 45.2768 152.646 45.9727 151.915 46.9278C151.023 48.081 150.331 49.4981 149.838 51.1791C149.356 52.8484 149.125 54.6077 149.143 56.457C149.16 58.1676 149.384 59.697 149.814 61.0452C150.244 62.3818 150.923 63.6756 151.85 64.9263ZM156.901 67.9627L156.778 67.8252C155.958 66.8623 155.262 66.1872 154.691 65.7999C154.119 65.4125 153.538 65.2217 152.948 65.2276C152.728 65.2298 152.485 65.2784 152.22 65.3735C152.958 66.21 153.676 66.8213 154.374 67.2074C155.085 67.5934 155.927 67.8452 156.901 67.9627Z" fill="black"/>
<path d="M186.975 43.8931L186.978 44.2919C186.319 44.3331 185.781 44.4309 185.366 44.5852C184.951 44.7396 184.588 44.986 184.279 45.3242C183.901 45.721 183.651 46.209 183.529 46.7882C183.419 47.3672 183.371 48.3618 183.385 49.7719L183.483 59.5848C183.498 61.1798 183.568 62.3351 183.691 63.0505C183.825 63.7543 184.081 64.4049 184.457 65.0023C185.022 65.9099 185.712 66.5677 186.526 66.9758C187.353 67.3722 188.385 67.5642 189.624 67.5519C190.828 67.54 191.973 67.3495 193.058 66.9804C194.154 66.5997 195.064 66.0821 195.787 65.4276C196.235 65.0186 196.56 64.5761 196.764 64.1001C196.979 63.6241 197.118 63.0216 197.18 62.2928C197.222 61.8184 197.234 60.697 197.216 58.9286L197.12 49.2371C197.108 48.0466 197.03 47.1689 196.885 46.6039C196.752 46.0388 196.505 45.5731 196.142 45.2068C195.814 44.8748 195.442 44.6357 195.023 44.4896C194.616 44.3434 194.083 44.2562 193.422 44.228L193.418 43.8293L201.426 43.75L201.43 44.1488C200.77 44.19 200.232 44.2878 199.817 44.4422C199.413 44.5964 199.051 44.8428 198.73 45.1812C198.375 45.5546 198.131 46.0309 197.997 46.6102C197.876 47.1778 197.821 48.0511 197.832 49.23L197.941 60.1699C197.957 61.788 197.842 62.9856 197.595 63.7625C197.359 64.5277 196.874 65.2319 196.139 65.8749C194.463 67.348 192.056 68.1001 188.918 68.1311C185.641 68.1636 183.22 67.4998 181.654 66.1397C180.638 65.2713 180.025 64.1214 179.813 62.6901C179.739 62.1823 179.695 61.2637 179.682 59.9345L179.577 49.4108C179.565 48.2203 179.493 47.3425 179.36 46.7774C179.227 46.2123 178.973 45.7467 178.599 45.3805C178.283 45.0484 177.916 44.8093 177.498 44.6632C177.091 44.5169 176.552 44.4298 175.88 44.4018L175.876 44.003L186.975 43.8931Z" fill="black"/>
<path d="M224.857 43.518L225.21 49.2364L224.81 49.2577C224.65 48.2883 224.393 47.4874 224.039 46.8552C223.686 46.2229 223.176 45.6673 222.512 45.1884C221.963 44.7893 221.318 44.5125 220.575 44.358C219.832 44.1919 218.847 44.115 217.62 44.1272L213.642 44.1665L213.746 54.5689L214.788 54.5586C215.842 54.5482 216.634 54.471 217.165 54.327C217.697 54.183 218.128 53.9302 218.461 53.5686C218.782 53.2302 219.015 52.8349 219.161 52.3826C219.319 51.9187 219.445 51.2412 219.54 50.3502L219.94 50.3636L219.963 59.657L219.563 59.661C219.45 58.772 219.287 58.057 219.073 57.5158C218.871 56.9745 218.588 56.515 218.226 56.1371C217.875 55.7707 217.42 55.5035 216.863 55.3356C216.305 55.1678 215.598 55.0881 214.741 55.0966L213.751 55.1064L213.79 59.0766C213.806 60.6601 213.858 61.8155 213.947 62.5429C214.035 63.2587 214.197 63.8582 214.433 64.3413C214.835 65.1696 215.438 65.7763 216.241 66.1614C217.055 66.5347 218.122 66.7149 219.442 66.7018C220.832 66.6881 221.994 66.5032 222.928 66.1471C223.863 65.7796 224.622 65.223 225.205 64.4774C225.617 63.9763 225.947 63.4066 226.195 62.7684C226.455 62.13 226.69 61.2897 226.9 60.2472L227.299 60.2606L227.142 67.1631L206.421 67.3683L206.417 66.9695C207.077 66.9283 207.608 66.8306 208.012 66.6763C208.427 66.5219 208.796 66.2755 209.116 65.9371C209.472 65.5637 209.71 65.0932 209.832 64.5256C209.965 63.9463 210.026 63.0672 210.014 61.8883L209.887 49.1107C209.876 47.9317 209.797 47.0598 209.653 46.4948C209.52 45.9181 209.272 45.4467 208.909 45.0804C208.593 44.7483 208.226 44.5092 207.808 44.363C207.401 44.2168 206.862 44.1296 206.19 44.1016L206.186 43.7029L224.857 43.518Z" fill="black"/>
</g>
</svg>
