<svg width="35" height="35" viewBox="0 0 35 35" fill="none" xmlns="http://www.w3.org/2000/svg">
<g id="Group 627524">
<path id="Vector" d="M33.9013 14.1605V19.0957C33.9013 25.676 30.6112 28.9661 24.0309 28.9661H23.2084C22.6984 28.9661 22.2049 29.2129 21.8923 29.6241L19.4247 32.9143C18.339 34.3619 16.5623 34.3619 15.4766 32.9143L13.009 29.6241C12.7458 29.2622 12.1371 28.9661 11.6929 28.9661H10.8704C4.29013 28.9661 1 27.321 1 19.0957V10.8704C1 4.29013 4.29013 1 10.8704 1H20.7408" stroke="#292D32" stroke-width="2" stroke-miterlimit="10" stroke-linecap="round" stroke-linejoin="round"/>
<path id="Vector_2" d="M29.7884 9.22532C32.0598 9.22532 33.9011 7.38402 33.9011 5.11266C33.9011 2.8413 32.0598 1 29.7884 1C27.5171 1 25.6758 2.8413 25.6758 5.11266C25.6758 7.38402 27.5171 9.22532 29.7884 9.22532Z" stroke="#292D32" stroke-width="2" stroke-linecap="round" stroke-linejoin="round"/>
<path id="Vector_3" d="M24.0254 15.8057H24.0411" stroke="#292D32" stroke-width="4" stroke-linecap="round" stroke-linejoin="round"/>
<path id="Vector_4" d="M17.4434 15.8057H17.4593" stroke="#292D32" stroke-width="4" stroke-linecap="round" stroke-linejoin="round"/>
<path id="Vector_5" d="M10.8613 15.8057H10.8772" stroke="#292D32" stroke-width="4" stroke-linecap="round" stroke-linejoin="round"/>
</g>
</svg>
