<svg width="17" height="17" viewBox="0 0 17 17" fill="none" xmlns="http://www.w3.org/2000/svg">
<mask id="mask0_11722_63231" style="mask-type:alpha" maskUnits="userSpaceOnUse" x="0" y="0" width="17" height="17">
<rect width="17" height="17" fill="#676767"/>
</mask>
<g mask="url(#mask0_11722_63231)">
<path d="M8.4999 14.397L7.71803 13.6942C6.54383 12.629 5.57283 11.7136 4.805 10.948C4.03719 10.1825 3.42876 9.50116 2.9797 8.90407C2.53063 8.30698 2.21687 7.76234 2.03843 7.27014C1.85998 6.77795 1.77075 6.27848 1.77075 5.77175C1.77075 4.76647 2.10971 3.92488 2.78762 3.24697C3.46553 2.56906 4.30712 2.2301 5.3124 2.2301C5.93084 2.2301 6.51521 2.37473 7.06553 2.66398C7.61584 2.95321 8.09397 3.36799 8.4999 3.90832C8.90584 3.36799 9.38396 2.95321 9.93428 2.66398C10.4846 2.37473 11.069 2.2301 11.6874 2.2301C12.6927 2.2301 13.5343 2.56906 14.2122 3.24697C14.8901 3.92488 15.2291 4.76647 15.2291 5.77175C15.2291 6.27848 15.1398 6.77795 14.9614 7.27014C14.7829 7.76234 14.4692 8.30698 14.0201 8.90407C13.571 9.50116 12.9637 10.1825 12.1982 10.948C11.4327 11.7136 10.4605 12.629 9.28178 13.6942L8.4999 14.397ZM8.4999 12.9613C9.63323 11.9415 10.5659 11.0674 11.2978 10.3391C12.0298 9.61083 12.6082 8.9781 13.0332 8.44095C13.4582 7.90379 13.7534 7.4268 13.9187 7.00997C14.0839 6.59314 14.1666 6.1804 14.1666 5.77175C14.1666 5.06342 13.9305 4.47314 13.4582 4.00092C12.986 3.5287 12.3957 3.29259 11.6874 3.29259C11.128 3.29259 10.611 3.45128 10.1366 3.76867C9.66207 4.08605 9.28633 4.52763 9.00935 5.0934H7.99045C7.70893 4.5231 7.33207 4.08038 6.85984 3.76526C6.38762 3.45014 5.87181 3.29259 5.3124 3.29259C4.60861 3.29259 4.01947 3.5287 3.54497 4.00092C3.07048 4.47314 2.83323 5.06342 2.83323 5.77175C2.83323 6.1804 2.91587 6.59314 3.08115 7.00997C3.24643 7.4268 3.54157 7.90379 3.96657 8.44095C4.39157 8.9781 4.97004 9.6097 5.70198 10.3357C6.43393 11.0618 7.36657 11.937 8.4999 12.9613Z" fill="black"/>
</g>
</svg>
