<svg width="16" height="16" viewBox="0 0 16 16" fill="none" xmlns="http://www.w3.org/2000/svg">
<g id="info">
<mask id="mask0_11470_61000" style="mask-type:alpha" maskUnits="userSpaceOnUse" x="0" y="0" width="16" height="16">
<rect id="Bounding box" width="16" height="16" fill="#D9D9D9"/>
</mask>
<g mask="url(#mask0_11470_61000)">
<path id="info_2" d="M7.56644 11.0336H8.4331V7.20026H7.56644V11.0336ZM7.99627 6.19259C8.12894 6.19259 8.24133 6.14771 8.33344 6.05793C8.42555 5.96815 8.47161 5.85693 8.47161 5.72426C8.47161 5.59159 8.42672 5.47921 8.33694 5.38709C8.24716 5.29509 8.13594 5.24909 8.00327 5.24909C7.8706 5.24909 7.75822 5.29393 7.66611 5.38359C7.57399 5.47337 7.52794 5.58459 7.52794 5.71726C7.52794 5.84993 7.57283 5.96232 7.6626 6.05443C7.75238 6.14654 7.86361 6.19259 7.99627 6.19259ZM8.00544 14.0669C7.17088 14.0669 6.38488 13.909 5.64744 13.5933C4.90999 13.2775 4.26455 12.843 3.71111 12.2898C3.15766 11.7365 2.72294 11.0916 2.40694 10.3549C2.09105 9.61837 1.93311 8.83132 1.93311 7.99376C1.93311 7.1562 2.09099 6.37148 2.40677 5.63959C2.72255 4.9077 3.15705 4.26504 3.71027 3.71159C4.26349 3.15815 4.90844 2.72343 5.64511 2.40743C6.38166 2.09154 7.16872 1.93359 8.00627 1.93359C8.84383 1.93359 9.62855 2.09148 10.3604 2.40726C11.0923 2.72304 11.735 3.15754 12.2884 3.71076C12.8419 4.26398 13.2766 4.90759 13.5926 5.64159C13.9085 6.3757 14.0664 7.16004 14.0664 7.99459C14.0664 8.82915 13.9085 9.61515 13.5928 10.3526C13.277 11.09 12.8425 11.7355 12.2893 12.2889C11.736 12.8424 11.0924 13.2771 10.3584 13.5931C9.62433 13.909 8.83999 14.0669 8.00544 14.0669ZM7.99977 13.2003C9.44422 13.2003 10.672 12.6947 11.6831 11.6836C12.6942 10.6725 13.1998 9.4447 13.1998 8.00026C13.1998 6.55582 12.6942 5.32804 11.6831 4.31693C10.672 3.30582 9.44422 2.80026 7.99977 2.80026C6.55533 2.80026 5.32755 3.30582 4.31644 4.31693C3.30533 5.32804 2.79977 6.55582 2.79977 8.00026C2.79977 9.4447 3.30533 10.6725 4.31644 11.6836C5.32755 12.6947 6.55533 13.2003 7.99977 13.2003Z" fill="#2F2F2F"/>
</g>
</g>
</svg>
